<?xml version="1.0" encoding="UTF-8"?> <svg xmlns="http://www.w3.org/2000/svg" width="100" height="100" viewBox="0 0 100 100" fill="none"><g clip-path="url(#clip0_4_66)"><rect width="100" height="100" fill="white"></rect><g clip-path="url(#clip1_4_66)"><path d="M-9 -8H108V109H-9V-8Z" fill="white"></path><path d="M70.5118 65.2239C70.961 65.603 71.3636 66.1191 71.7638 66.5544C71.457 66.8546 71.1565 67.1573 70.8157 67.4193C70.3696 67.0521 69.9722 66.6063 69.5657 66.1956L70.5118 65.2239Z" fill="black"></path><path d="M92.7667 53.5625C93.2883 53.9438 93.8013 54.3208 94.2728 54.7641C93.9588 55.1616 93.5499 55.5043 93.1833 55.8536L92.4375 56.5738C92.5399 55.5678 92.6862 54.572 92.7667 53.5625Z" fill="black"></path><path d="M6.48404 53.2942C6.62184 53.4674 6.63018 55.8939 6.6632 56.366L5.93115 55.6376C5.59569 55.3071 5.23555 54.9837 4.94385 54.6134C5.46795 54.1861 5.95526 53.7169 6.48404 53.2942Z" fill="black"></path><path d="M57.0539 67.886C57.5671 68.0725 58.1069 68.2026 58.6087 68.4157C58.4952 69.5084 58.0964 70.7628 57.481 71.682C56.9749 71.469 56.4655 71.2644 55.9527 71.0681C55.9196 70.8943 56.1022 70.641 56.1874 70.4976C56.5195 69.9389 56.718 69.2034 56.8534 68.5706C56.8343 68.3739 56.9359 68.0383 57.0539 67.886Z" fill="black"></path><path d="M56.8534 68.5706C57.2086 68.6487 57.562 68.7348 57.9134 68.8288C57.6734 69.4944 57.4562 70.1865 57.1718 70.8335C56.8481 70.7167 56.5209 70.5812 56.1874 70.4975C56.5195 69.9388 56.718 69.2033 56.8534 68.5706Z" fill="#3AC9E2"></path><path d="M56.0328 62.7798C56.6088 62.6116 57.1865 62.4196 57.768 62.2744C58.3459 63.3555 58.7658 64.4532 58.7725 65.6931C58.2354 65.8497 57.6986 65.918 57.1486 66.0073C57.1214 65.9496 57.0938 65.8914 57.0714 65.8317C57.0092 65.6666 56.9676 65.4909 57.0439 65.3315C56.6919 64.8892 56.7611 63.9859 56.3719 63.444C56.2073 63.2677 56.1229 63.0003 56.0328 62.7798Z" fill="black"></path><path d="M57.3572 63.032C57.7472 63.6547 57.9271 64.4241 58.067 65.1379L57.0439 65.3316C56.6919 64.8894 56.7611 63.986 56.3719 63.4441L57.3572 63.032Z" fill="#3AC9E2"></path><path d="M46.7634 58.6801C46.7473 58.2576 46.5915 57.3737 46.8295 57.0201C47.5358 56.5653 49.624 56.7631 50.5029 56.7982C50.4917 57.414 50.4848 58.0298 50.4822 58.6456C50.2651 58.6172 50.0521 58.6147 49.8343 58.5759L49.76 58.4605C49.6424 58.5951 49.557 58.5949 49.381 58.6069C48.7526 58.65 48.0125 58.6773 47.3892 58.6195C47.1816 58.6201 46.9698 58.6564 46.7634 58.6801Z" fill="black"></path><path d="M47.3924 57.5173C48.1767 57.4192 49.0034 57.4673 49.7927 57.4678C49.7965 57.8012 49.7829 58.128 49.7599 58.4605C49.6423 58.5951 49.557 58.5949 49.3809 58.6069C48.7525 58.65 48.0124 58.6773 47.3892 58.6195L47.3924 57.5173Z" fill="#3AC9E2"></path><path d="M41.1361 60.0788C41.5373 59.6044 43.1674 58.0068 43.73 57.8879C44.2246 58.0344 44.9754 58.8207 45.3055 59.226L44.6316 59.5836C44.1184 60.0634 43.3932 60.5617 42.7898 60.9297C42.6472 61.0525 42.4751 61.251 42.2909 61.2905C41.9069 60.8851 41.4659 60.5329 41.1361 60.0788Z" fill="black"></path><path d="M43.8255 58.707C44.0863 59.0082 44.3538 59.2981 44.6316 59.5836C44.1184 60.0634 43.3932 60.5617 42.7898 60.9297L42.0325 60.0856C42.6072 59.5992 43.1904 59.113 43.8255 58.707Z" fill="#3AC9E2"></path><path d="M54.9786 72.2722C55.3347 72.766 55.7177 73.2547 56.0292 73.778C55.4234 74.6439 54.1764 75.4295 53.2253 75.8496C52.7633 75.3825 52.3894 74.8291 52.0199 74.2879C52.2363 74.18 52.4452 74.0935 52.676 74.0212C53.2845 73.7523 53.8398 73.1905 54.3208 72.7462C54.5488 72.6047 54.7625 72.4315 54.9786 72.2722Z" fill="black"></path><path d="M54.3208 72.7463C54.6161 73.0865 54.9118 73.4222 55.1703 73.792C54.6612 74.2376 54.066 74.6115 53.5018 74.9846C53.2189 74.669 52.941 74.3523 52.6759 74.0213C53.2844 73.7525 53.8397 73.1907 54.3208 72.7463Z" fill="#3AC9E2"></path><path d="M42.3674 72.273C42.5131 72.2725 42.5862 72.3482 42.6856 72.4544C42.7696 72.5441 42.8481 72.6557 42.8948 72.7692C43.3386 73.3137 44.0839 73.6803 44.684 74.0274C44.9018 74.0813 45.1264 74.2525 45.2973 74.3946C45.0689 74.7384 44.5396 75.741 44.1263 75.8548C43.3107 75.7515 41.7939 74.3496 41.2151 73.7633C41.5516 73.2331 42.0273 72.806 42.3674 72.273Z" fill="black"></path><path d="M42.8948 72.7693C43.3386 73.3138 44.0839 73.6804 44.6839 74.0275C44.4695 74.3922 44.2588 74.7397 43.9677 75.049C43.3007 74.7279 42.6714 74.2557 42.1486 73.7342C42.3818 73.4035 42.6456 73.0884 42.8948 72.7693Z" fill="#3AC9E2"></path><path d="M27.896 59.1545L28.0742 59.1592C28.2645 59.4213 28.1532 59.9537 28.129 60.2657L21.9496 60.2753C21.8228 60.2671 21.8216 60.2678 21.7277 60.1825C21.6439 59.8584 21.6816 59.5054 21.6896 59.1727L27.896 59.1545Z" fill="black"></path><path d="M40.088 67.7036L40.2137 67.7769C40.257 67.9664 40.2766 68.1491 40.2921 68.3429C40.4796 69.0831 40.8393 69.714 41.0651 70.4247C41.2167 70.6004 41.3338 70.8896 41.4025 71.1128C40.7707 71.314 40.1525 71.5324 39.5354 71.7746C38.9609 70.8375 38.4826 69.395 38.3032 68.3227L40.088 67.7036Z" fill="black"></path><path d="M40.2921 68.343C40.4796 69.0832 40.8393 69.7141 41.0651 70.4248C40.663 70.5942 40.2563 70.7518 39.845 70.8977C39.5858 70.1927 39.3374 69.484 39.0997 68.7714C39.4896 68.6134 39.8955 68.4837 40.2921 68.343Z" fill="#3AC9E2"></path><path d="M49.6715 74.9809C49.8909 74.9039 50.1357 74.8778 50.3644 74.8379C50.3614 75.5408 50.4537 76.2406 50.4472 76.9453C49.2314 77.041 47.9119 77.0372 46.6995 76.9012C46.7125 76.2294 46.7812 75.5375 46.8715 74.8721C47.1112 74.8996 47.345 74.9135 47.5693 75.0086C48.2634 75.1101 48.9792 75.0706 49.6715 74.9809Z" fill="black"></path><path d="M47.5692 75.0086C48.2633 75.1101 48.9792 75.0706 49.6715 74.981C49.6622 75.444 49.6638 75.9106 49.6186 76.3717C48.9102 76.3353 48.1999 76.2801 47.4908 76.3276C47.5082 75.8874 47.5343 75.4477 47.5692 75.0086Z" fill="#3AC9E2"></path><path d="M40.1791 66.1117C39.5537 65.8976 38.7134 65.9752 38.1934 65.5207C38.1389 65.3392 38.1927 65.1963 38.247 65.0169C38.3868 64.5539 39.0745 62.3503 39.3796 62.1898C39.9497 62.1199 40.752 62.5448 41.2863 62.7392L40.9405 63.4275C40.6753 64.0876 40.4148 64.7327 40.3009 65.4389C40.2892 65.6614 40.2744 65.9066 40.1791 66.1117Z" fill="black"></path><path d="M39.691 62.8689L40.9405 63.4274C40.6753 64.0876 40.4148 64.7327 40.3008 65.4388C39.8525 65.3038 39.3748 65.2284 38.9163 65.1319C39.1971 64.3853 39.4417 63.6264 39.691 62.8689Z" fill="url(#paint0_linear_4_66)"></path><path d="M53.1782 57.5823C53.7705 57.9282 56.0184 59.3344 56.1829 59.9459C55.9392 60.4463 55.4287 60.9124 55.0898 61.364C54.9005 61.2416 54.7268 61.1096 54.5527 60.9667C53.9743 60.4327 53.2913 59.8755 52.5851 59.5263C52.3535 59.4153 52.184 59.2771 51.9904 59.1131C52.3476 58.5739 52.7101 58.0328 53.1782 57.5823Z" fill="black"></path><path d="M53.3131 58.4927C53.9929 58.9567 54.6659 59.4303 55.3322 59.9135L54.5527 60.9666C53.9743 60.4325 53.2913 59.8754 52.5851 59.5261C52.8342 59.1857 53.0847 58.8474 53.3131 58.4927Z" fill="#3AC9E2"></path><path d="M21.0329 54.9465C21.169 55.5949 21.0661 57.6156 21.0688 58.376L16.0849 58.3577C16.054 58.3546 16.0298 58.3289 16.0037 58.3123C16.1445 58.1027 20.4177 55.2914 21.0329 54.9465Z" fill="black"></path><path d="M48.5652 42.6243L49.5631 42.6332L49.5703 54.1483L48.5671 54.15C48.6136 50.3106 48.5894 46.4639 48.5652 42.6243Z" fill="black"></path><path d="M89.2597 50.5542C89.8094 51.1872 90.5772 51.69 91.0405 52.3826C90.8255 58.3748 89.8963 63.2854 87.4483 68.7955C86.8825 70.0692 86.1421 71.2616 85.5626 72.5302L85.4565 72.6665C85.0653 72.6368 84.3744 71.802 84.1096 71.5251C84.5548 70.4879 85.2207 69.5259 85.6961 68.4891C85.915 68.0172 86.1242 67.541 86.3237 67.0606C86.5232 66.5802 86.7128 66.0959 86.8926 65.6077C87.0724 65.1195 87.2421 64.6279 87.4018 64.1328C87.5616 63.6377 87.7112 63.1396 87.8506 62.6384C87.99 62.1372 88.1192 61.6334 88.2381 61.1269C88.3571 60.6205 88.4657 60.1119 88.5638 59.601C88.662 59.0902 88.7498 58.5776 88.8271 58.0631C88.9045 57.5486 88.9713 57.0328 89.0276 56.5157C89.1459 55.2543 89.2086 53.9901 89.2157 52.7232C89.2229 52.0562 89.1584 51.3164 89.2444 50.662L89.2597 50.5542Z" fill="black"></path><path d="M9.66122 50.4346C9.71035 50.4828 9.7204 50.5416 9.72943 50.6104C9.79627 51.1208 9.72177 51.7505 9.72612 52.2717C9.73289 53.3819 9.77757 54.4905 9.86014 55.5975C9.94941 56.7397 10.0924 57.8752 10.2892 59.0039C10.486 60.1325 10.7357 61.2494 11.0381 62.3544C12.5732 68.0793 14.9358 72.1679 18.5402 76.8262C18.0402 76.7758 17.537 76.7803 17.035 76.7756L16.2993 76.7683C15.2011 75.4336 14.2747 73.8696 13.4106 72.378C13.2333 72.0769 13.0602 71.7734 12.8911 71.4676C12.722 71.1618 12.5571 70.8537 12.3963 70.5434C12.2356 70.2331 12.0791 69.9207 11.9268 69.6062C11.7746 69.2917 11.6266 68.9752 11.4828 68.6566C11.3392 68.3381 11.1998 68.0177 11.0648 67.6954C10.9297 67.3731 10.799 67.0491 10.6727 66.7233C10.5464 66.3974 10.4246 66.0699 10.3072 65.7408C10.1898 65.4116 10.0768 65.081 9.96834 64.7488C9.85987 64.4167 9.75594 64.0831 9.65653 63.7481C9.55705 63.4131 9.46214 63.0768 9.3718 62.7392C9.28146 62.4017 9.19569 62.063 9.11449 61.7231C9.03337 61.3832 8.95682 61.0423 8.88483 60.7003C8.81285 60.3584 8.74552 60.0155 8.68283 59.6717C8.62014 59.328 8.56213 58.9834 8.50881 58.6381C8.45542 58.2927 8.40674 57.9467 8.36279 57.6C8.31876 57.2534 8.27946 56.9062 8.24488 56.5584C8.09577 55.0287 8.06538 53.4916 8.03784 51.9559C8.54389 51.421 9.11826 50.9332 9.66122 50.4346Z" fill="black"></path><path d="M80.7224 53.312C81.3289 53.2505 81.8798 53.3076 82.4593 53.4829C81.8044 54.3869 80.2899 55.6629 79.4468 56.5308C80.2881 57.3899 81.1381 58.2403 81.9969 59.082C83.0669 58.0774 84.0761 56.8917 85.2517 56.0143C85.2526 57.3418 85.0357 58.6497 84.3519 59.8087C83.6668 60.9698 82.7669 61.6848 81.4592 62.0139C81.0137 61.3745 80.2254 61.2743 79.5337 61.0172C79.3588 60.9136 79.1985 60.7874 79.0348 60.6674C78.2278 61.3386 77.4312 62.0138 76.6648 62.7316C75.9855 63.368 75.3091 64.1274 74.5447 64.6518C74.1232 64.2466 73.711 63.8323 73.3079 63.4089C73.6645 63.0176 74.0793 62.6664 74.4656 62.3032C75.7094 61.1334 77.1774 59.8784 78.2577 58.566C78.0646 58.2283 77.8437 57.9267 77.6072 57.6184C77.4008 57.6445 77.2138 57.6664 77.0062 57.6459C76.8977 57.5554 76.8742 57.5001 76.8527 57.3591C76.7445 56.6478 77.0452 55.8143 77.4472 55.2296C78.2093 54.1208 79.4332 53.5533 80.7224 53.312Z" fill="black"></path><path d="M76.089 65.7935C76.6106 66.082 78.0684 67.6779 78.5891 68.1818L85.2481 74.5683C84.3151 75.6004 83.3243 76.5762 82.3979 77.6189C82.2876 77.7108 82.3496 77.6743 82.2106 77.7263C81.9189 77.5269 80.5469 76.0154 80.1938 75.646C78.8984 74.2905 77.5461 72.9988 76.2419 71.6539C75.3214 70.7047 74.4511 69.617 73.411 68.7992C74.3266 67.8157 75.1745 66.7749 76.089 65.7935Z" fill="black"></path><path d="M79.3901 72.3516C80.0492 72.3374 80.7065 72.3603 81.3652 72.38C82.1232 73.1667 82.8857 73.949 83.6529 74.7268L82.8165 75.5119L82.3671 76.0057C81.696 75.3217 81.0553 74.6023 80.4041 73.8993C79.9778 73.4392 79.4702 72.9713 79.1276 72.4464C79.2131 72.3439 79.2624 72.3689 79.3901 72.3516Z" fill="white"></path><path d="M68.2697 65.6182C69.1163 66.5064 70.2567 68.0455 71.1695 68.7263C70.7045 69.3994 69.975 69.9685 69.4057 70.5587C67.8097 72.2128 66.1775 73.8444 64.5496 75.4674C63.8362 76.1788 63.0821 76.8506 62.4 77.5926C62.0644 77.4339 59.8897 74.7503 59.5037 74.2604C61.3919 72.5077 63.2546 70.6727 65.0624 68.8359C66.1106 67.7709 67.1229 66.572 68.2697 65.6182Z" fill="black"></path><path d="M63.1862 72.3212C64.001 72.3221 64.8214 72.3055 65.6344 72.3574C64.8539 73.354 63.9032 74.2663 63.04 75.197L62.4142 75.8413C61.9578 75.3959 61.5311 74.9237 61.1339 74.4248L63.1862 72.3212Z" fill="white"></path><path d="M61.8524 53.5338C61.8718 53.5327 61.8911 53.5311 61.9104 53.5308C63.7249 53.5041 66.3131 54.1693 67.6598 55.4101C68.1543 55.8657 68.6634 56.7295 68.6606 57.4302C68.6597 57.6633 68.5777 57.809 68.4182 57.9703C68.2236 58.069 68.0341 58.0085 67.8292 57.9736C67.7605 58.2506 67.722 58.5335 67.6778 58.8151C68.6979 59.926 69.868 60.9296 70.9645 61.9667C72.3734 63.2991 73.742 64.6641 75.1365 66.0097C74.6854 66.5224 74.2312 67.0325 73.7741 67.54C73.3231 67.2138 72.9125 66.7688 72.5073 66.385C71.3884 65.3254 70.3169 64.2127 69.2286 63.1214C68.2853 62.2325 66.9775 60.8008 65.9484 60.1071C65.4868 60.4403 65.0216 60.783 64.6293 61.197C64.6873 61.4136 64.7463 61.6249 64.7747 61.8479C64.713 61.8899 64.6601 61.9161 64.5845 61.923C63.6475 62.0099 62.4628 61.3448 61.7994 60.7326C60.3537 59.3983 60.1283 57.315 60.064 55.4566C61.1049 56.791 61.9606 58.2066 63.399 59.1525C64.2182 58.3743 65.0254 57.5838 65.8207 56.7811C64.5482 55.5852 63.2792 54.5404 61.8524 53.5338Z" fill="black"></path><path d="M58.0398 11.7571C59.0015 11.8444 60.0777 12.2507 60.9976 12.5436C64.9538 13.8032 68.6184 15.3641 72.1422 17.5822C78.9189 21.8479 84.3866 28.4257 87.7786 35.6335C88.3923 36.9376 89.2386 38.7809 89.5531 40.1618C89.0719 39.8199 87.4668 38.3756 87.1443 37.9056C86.6553 37.1925 86.3211 36.265 85.9276 35.4839C85.1286 33.8978 84.2751 32.3266 83.2851 30.8513C82.8081 30.1317 82.3099 29.4272 81.7905 28.7377C81.2709 28.0483 80.7309 27.3752 80.1706 26.7185C79.6103 26.0617 79.0307 25.4225 78.4317 24.8009C77.8327 24.1792 77.2155 23.5763 76.58 22.9919C73.7878 20.3752 70.4345 18.1618 66.9698 16.5453C65.7037 15.9547 64.4136 15.4224 63.0994 14.9482C62.4227 14.7064 61.608 14.5586 60.9836 14.2213C60.1119 13.7502 58.7725 12.4624 58.0398 11.7571Z" fill="black"></path><path d="M21.5824 52.9027L25.7809 52.9249C26.5659 52.9294 27.5982 52.8128 28.352 53.015C29.0161 53.193 29.6963 53.7251 30.2772 54.0892C31.6265 54.9347 32.9556 55.8131 34.3072 56.6532C34.7317 56.917 35.1489 57.2306 35.5893 57.4617C35.7795 57.5615 35.9864 57.6542 36.2052 57.6553C36.537 57.6571 36.6203 57.4596 36.8314 57.265C36.9054 57.1968 36.9244 57.2217 37.0194 57.227C37.1503 57.3136 37.261 57.3858 37.3059 57.5488C37.4018 57.8963 37.1433 58.2314 36.9641 58.503C37.3935 59.3049 37.2189 60.6076 37.2148 61.4972L37.2135 62.1379L36.2729 62.1237C36.2163 60.8741 36.2475 59.6071 36.2418 58.3554C34.6189 58.306 32.9751 58.3629 31.3502 58.3652L21.5791 58.3668C21.6271 56.5477 21.6061 54.7221 21.5824 52.9027Z" fill="black"></path><path d="M40.7104 11.7177C40.7805 11.7085 40.8537 11.7131 40.9243 11.7129C40.8971 11.9161 38.4862 13.923 38.1133 14.1284C37.6359 14.3913 37.0875 14.5136 36.5727 14.6828C35.9441 14.8935 35.3239 15.1262 34.7119 15.3811C33.9726 15.688 33.2423 16.0151 32.5211 16.3626C31.7999 16.71 31.0889 17.0771 30.3882 17.464C29.6874 17.8509 28.9979 18.257 28.3196 18.6822C27.6414 19.1074 26.9755 19.5511 26.3218 20.0132C21.8033 23.1884 17.6974 27.5093 14.902 32.2843C14.3152 33.2866 13.7043 34.3025 13.2011 35.3491C12.8201 36.1419 12.5903 37.189 12.051 37.8773C11.5354 38.5354 10.5076 39.2654 9.85717 39.8949L9.7669 39.9665L9.70166 39.9393C9.73262 39.5122 9.96731 39.0224 10.1108 38.6194C10.3194 38.0189 10.5429 37.424 10.7814 36.8347C11.0199 36.2454 11.273 35.6625 11.5409 35.086C11.8088 34.5094 12.091 33.94 12.3875 33.3776C12.6841 32.8153 12.9945 32.2608 13.3189 31.7141C13.4674 31.4637 13.6184 31.2149 13.7719 30.9676C13.9254 30.7202 14.0815 30.4745 14.24 30.2304C14.3985 29.9862 14.5595 29.7437 14.7229 29.5029C14.8864 29.262 15.0523 29.0229 15.2207 28.7855C15.389 28.548 15.5598 28.3122 15.733 28.0782C15.9061 27.8442 16.0816 27.612 16.2595 27.3816C16.4373 27.1512 16.6176 26.9226 16.8002 26.6959C16.9827 26.4691 17.1675 26.2443 17.3546 26.0213C17.5418 25.7984 17.7312 25.5773 17.9229 25.3582C18.1144 25.1391 18.3082 24.922 18.5043 24.7068C18.7004 24.4916 18.8986 24.2785 19.099 24.0674C19.2994 23.8563 19.502 23.6472 19.7066 23.4403C19.9113 23.2332 20.1181 23.0283 20.327 22.8255C20.5357 22.6228 20.7466 22.4222 20.9596 22.2237C21.1725 22.0252 21.3874 21.8289 21.6044 21.6349C21.8213 21.4408 22.0402 21.2489 22.2611 21.0592C22.4819 20.8696 22.7047 20.6823 22.9293 20.4972C23.154 20.3121 23.3805 20.1293 23.6089 19.9489C23.8373 19.7683 24.0674 19.5902 24.2995 19.4145C24.5315 19.2387 24.7653 19.0653 25.0009 18.8943C25.2364 18.7233 25.4737 18.5547 25.7127 18.3885C25.9517 18.2222 26.1923 18.0585 26.4347 17.8973C26.677 17.736 26.921 17.5772 27.1665 17.4209C27.4121 17.2646 27.6593 17.1108 27.908 16.9595C28.1567 16.8083 28.4069 16.6596 28.6586 16.5135C28.9104 16.3673 29.1636 16.2237 29.4182 16.0827C29.6729 15.9417 29.9289 15.8033 30.1864 15.6675C30.4439 15.5317 30.7028 15.3986 30.963 15.2681C31.2231 15.1376 31.4846 15.0098 31.7475 14.8846C32.0103 14.7594 32.2743 14.6369 32.5396 14.5172C32.8049 14.3974 33.0713 14.2803 33.3391 14.1659C33.6068 14.0515 33.8756 13.9399 34.1455 13.8311C36.2733 12.9634 38.4913 12.3054 40.7104 11.7177Z" fill="black"></path><path d="M20.9587 61.0007L28.6507 61.0066L28.6996 71.8181C28.7014 73.4693 28.7736 75.154 28.6734 76.8013L27.489 76.8054C27.4664 71.9345 27.5504 67.0606 27.4689 62.1905C27.1429 62.1859 26.8156 62.1954 26.4895 62.1993C26.4456 67.0619 26.5477 71.9302 26.5295 76.7942C26.1252 76.8165 25.7179 76.8076 25.313 76.8074C25.2297 75.477 25.2797 74.1162 25.2758 72.7824L25.2565 65.4646L25.2313 62.1673L24.3149 62.1586L24.3145 76.8067L23.151 76.8102L23.1257 62.1564L22.131 62.1551L22.1274 76.7952L20.9336 76.7944L20.9587 61.0007Z" fill="black"></path><path d="M23.2422 83.3649C24.2018 83.3583 25.1613 83.3674 26.1207 83.3922C26.428 83.6015 26.7381 83.8068 27.0509 84.0082C27.3636 84.2094 27.6789 84.4066 27.9968 84.5997C28.3146 84.7928 28.6349 84.9817 28.9577 85.1664C29.2804 85.3512 29.6056 85.5317 29.9331 85.708C30.2606 85.8842 30.5903 86.0562 30.9223 86.224C31.2541 86.3917 31.5882 86.555 31.9244 86.714C32.2606 86.8731 32.5988 87.0277 32.939 87.1779C33.2793 87.3281 33.6214 87.4739 33.9654 87.6152C34.3094 87.7565 34.6552 87.8933 35.0027 88.0256C35.3503 88.1579 35.6996 88.2857 36.0505 88.4089C36.4014 88.5322 36.7539 88.6508 37.1078 88.7648C37.4618 88.8789 37.8172 88.9883 38.1741 89.0931C38.5309 89.1979 38.889 89.2981 39.2485 89.3936C39.6079 89.4891 39.9685 89.5799 40.3304 89.666C40.6922 89.752 41.055 89.8334 41.4189 89.9101C41.7828 89.9868 42.1477 90.0587 42.5135 90.1259C42.8384 90.1829 43.1639 90.236 43.49 90.2851C43.8161 90.3343 44.1428 90.3796 44.4701 90.4209C44.7974 90.4621 45.1251 90.4994 45.4532 90.5327C45.7814 90.566 46.1099 90.5953 46.4387 90.6207C46.7675 90.6462 47.0967 90.6676 47.4261 90.6849C47.7555 90.7024 48.085 90.7158 48.4147 90.7251C48.7443 90.7346 49.0741 90.74 49.404 90.7415C49.7339 90.7429 50.0636 90.7404 50.3934 90.7338C50.7231 90.7273 51.0528 90.7168 51.3823 90.7023C51.7118 90.6877 52.0411 90.6692 52.3702 90.6468C52.6992 90.6242 53.028 90.5977 53.3564 90.5674C53.6849 90.5369 54.0129 90.5025 54.3405 90.4641C54.6681 90.4257 54.9952 90.3833 55.3218 90.337C55.6483 90.2907 55.9743 90.2404 56.2996 90.1862C56.6249 90.132 56.9496 90.0738 57.2735 90.0118C57.5975 89.9498 57.9207 89.8837 58.243 89.8138C58.5654 89.744 58.8868 89.6702 59.2074 89.5925C59.528 89.5148 59.8475 89.4333 60.1661 89.3479C60.4847 89.2625 60.8022 89.1733 61.1187 89.0802C61.4351 88.987 61.7503 88.8901 62.0644 88.7894C62.3784 88.6887 62.6912 88.5842 63.0028 88.4759C63.3143 88.3676 63.6245 88.2555 63.9334 88.1397C64.2422 88.0239 64.5496 87.9043 64.8556 87.7811C65.1615 87.6578 65.4659 87.5309 65.7688 87.4002C66.0717 87.2696 66.3729 87.1354 66.6725 86.9975C66.9722 86.8595 67.2701 86.718 67.5662 86.5729C67.8625 86.4278 68.1569 86.2791 68.4494 86.1268C68.742 85.9746 69.0327 85.8188 69.3216 85.6595C69.6103 85.5002 69.8972 85.3374 70.182 85.1712C70.4669 85.0049 70.7497 84.8352 71.0305 84.6622C71.3113 84.4891 71.5899 84.3127 71.8664 84.1328C72.1429 83.953 72.4172 83.7698 72.6893 83.5833C73.5878 83.6035 74.4863 83.6183 75.3849 83.6277C75.1187 83.8626 74.8307 84.0755 74.5507 84.2938C69.0034 88.4793 61.5228 91.3634 54.6334 92.1187C43.6126 93.3273 31.9446 90.3583 23.2422 83.3649Z" fill="black"></path><path d="M50.5845 42.6995C53.3047 42.5888 56.0462 42.7343 58.7699 42.6813C58.8033 45.49 58.8175 48.2988 58.8125 51.1077C58.8138 51.7615 58.9259 53.5424 58.7808 54.077L58.6549 54.1255L50.4017 54.1348L50.4135 45.6739C50.4146 45.0391 50.3176 43.2221 50.446 42.772L50.5845 42.6995Z" fill="black"></path><path d="M55.2091 43.6021L57.8994 43.6093C57.9713 44.6846 57.9471 45.7738 57.9318 46.8509L55.2233 46.8521L55.2091 43.6021Z" fill="white"></path><path d="M51.2299 43.5937L54.2767 43.5857L54.2752 46.8281L51.2357 46.8282L51.2299 43.5937Z" fill="white"></path><path d="M55.2001 47.6982C56.1074 47.6671 57.0208 47.6891 57.9288 47.6905L57.914 53.2935C57.0386 53.3796 56.0912 53.308 55.2085 53.3043L55.2001 47.6982Z" fill="white"></path><path d="M51.2462 47.6859C52.2618 47.6706 53.2803 47.6891 54.2962 47.6912L54.2805 53.3058L51.2263 53.3069L51.2462 47.6859Z" fill="white"></path><path d="M38.9784 42.6638L47.7754 42.6778C47.8062 45.0324 47.8192 47.3871 47.8143 49.742C47.8165 51.2189 47.8531 52.7039 47.7949 54.1795C44.8592 54.2337 41.9142 54.1818 38.9773 54.185L38.9784 42.6638Z" fill="black"></path><path d="M39.7778 43.5758C40.8281 43.5456 41.8858 43.5732 42.9365 43.5816C42.9834 44.6543 42.959 45.7383 42.9657 46.8125C41.9051 46.8312 40.8407 46.8112 39.7795 46.81L39.7778 43.5758Z" fill="white"></path><path d="M46.387 43.5579L46.9822 43.5669C46.9997 44.6594 46.9857 45.754 46.9851 46.8467L44.4013 46.8332L43.7829 46.8236C43.7752 45.7402 43.7742 44.6569 43.7798 43.5736C44.6488 43.5615 45.5178 43.5562 46.387 43.5579Z" fill="white"></path><path d="M39.7556 47.6413C40.8205 47.6335 41.8854 47.6313 42.9503 47.6345L42.9422 53.1902L39.7771 53.1865L39.7556 47.6413Z" fill="white"></path><path d="M43.7913 47.6558C44.8537 47.655 45.916 47.6629 46.9783 47.6797L46.9911 53.1957L43.7711 53.2019C43.7603 51.3531 43.767 49.5044 43.7913 47.6558Z" fill="white"></path><path d="M49.7599 58.4604L49.8343 58.5759C50.0521 58.6146 50.2651 58.6171 50.4822 58.6455C50.9987 58.7532 51.5084 58.8946 51.9904 59.113C52.184 59.2769 52.3535 59.4152 52.5851 59.5261C53.2913 59.8754 53.9743 60.4325 54.5527 60.9666C54.7268 61.1095 54.9005 61.2415 55.0898 61.3639C55.4358 61.8112 55.6831 62.3472 56.0328 62.7797C56.1228 63.0003 56.2073 63.2676 56.3719 63.4439C56.7611 63.9858 56.6918 64.8892 57.0439 65.3315C56.9676 65.4908 57.0091 65.6666 57.0714 65.8317C57.0938 65.8913 57.1213 65.9496 57.1485 66.0073C57.2363 66.5886 57.19 67.3119 57.0539 67.8858C56.9359 68.0381 56.8343 68.3737 56.8534 68.5704C56.718 69.2032 56.5195 69.9387 56.1874 70.4974C56.1022 70.6408 55.9196 70.8941 55.9527 71.0679C55.6539 71.5011 55.3537 71.9014 54.9785 72.2722C54.7625 72.4314 54.5487 72.6047 54.3208 72.7461C53.8397 73.1905 53.2844 73.7523 52.6759 74.0211C52.4451 74.0934 52.2362 74.1799 52.0198 74.2879C51.5051 74.5431 50.9301 74.7359 50.3644 74.8377C50.1356 74.8776 49.8909 74.9037 49.6715 74.9808C48.9792 75.0705 48.2634 75.1099 47.5693 75.0084C47.345 74.9133 47.1112 74.8994 46.8715 74.8719C46.3394 74.729 45.8183 74.5751 45.2973 74.3945C45.1263 74.2524 44.9018 74.0812 44.6839 74.0273C44.0838 73.6802 43.3385 73.3136 42.8948 72.7691C42.848 72.6556 42.7695 72.544 42.6856 72.4543C42.5861 72.3481 42.513 72.2724 42.3673 72.2728C41.9778 71.9416 41.6881 71.5328 41.4024 71.1128C41.3338 70.8895 41.2167 70.6003 41.065 70.4246C40.8393 69.7139 40.4796 69.083 40.2921 68.3428C40.2765 68.1491 40.257 67.9664 40.2137 67.7768L40.088 67.7036L40.1471 67.6814C40.2807 67.3815 40.1406 66.5056 40.1791 66.1116C40.2744 65.9065 40.2892 65.6613 40.3009 65.4387C40.4148 64.7326 40.6753 64.0875 40.9405 63.4274L41.2863 62.7391C41.4548 62.2199 41.9511 61.7121 42.2909 61.2905C42.4751 61.251 42.6472 61.0525 42.7898 60.9297C43.3931 60.5617 44.1183 60.0634 44.6316 59.5836L45.3055 59.226C45.7888 58.9878 46.2486 58.8361 46.7634 58.6801C46.9698 58.6563 47.1816 58.6201 47.3892 58.6194C48.0125 58.6772 48.7525 58.6499 49.3809 58.6068C49.557 58.5948 49.6424 58.595 49.7599 58.4604Z" fill="#2261CC"></path><path d="M48.2284 59.8335C49.8916 59.5894 51.7731 60.3254 53.0812 61.3106C54.396 62.3008 55.4501 63.9637 55.6693 65.605C55.9333 67.5799 55.4832 69.4718 54.2516 71.0481C53.0436 72.594 51.2533 73.3389 49.3429 73.5771C47.5133 73.6163 45.8771 73.2982 44.3801 72.191C42.8707 71.0748 41.9382 69.413 41.6685 67.5572C41.4218 65.86 41.9898 64.003 43.0205 62.6484C44.2552 61.0259 46.2423 60.0956 48.2284 59.8335Z" fill="white"></path><path d="M44.837 62.7735L49.7953 62.7719C50.7593 62.769 51.8156 62.6787 52.7668 62.8435L52.7459 62.9035L52.835 62.8737C52.9673 63.2698 52.966 69.4943 52.9218 70.2784C52.9146 70.4057 52.8827 70.4945 52.8323 70.6098C52.176 70.7834 50.7917 70.6606 50.0477 70.6534L44.8234 70.6087C44.7704 69.1742 44.8073 67.725 44.808 66.2885C44.8085 65.1246 44.7611 63.9339 44.837 62.7735Z" fill="#2261CC"></path><path d="M48.9425 63.4961C50.0231 63.4788 51.1037 63.4709 52.1844 63.4723V69.9845L48.743 69.9729L45.4921 69.9782L45.5035 63.5168C46.644 63.4668 47.8 63.5039 48.9425 63.4961Z" fill="white"></path><path d="M48.3003 23.1782C48.6641 23.3775 49.0483 23.8432 49.3617 24.127L52.5705 27.0522C54.2386 28.5879 55.9671 30.0536 57.6153 31.6124C57.633 30.6542 57.6372 29.696 57.628 28.7378C57.5083 28.673 57.3895 28.6069 57.2714 28.5393C56.7786 28.2571 56.6433 27.9829 56.5018 27.4559C56.6241 27.0769 56.7708 26.7084 57.111 26.4699C57.3144 26.3273 57.6027 26.3123 57.8441 26.2919C58.6553 26.2233 62.4617 26.1965 63.1032 26.367C63.3585 26.4349 63.5825 26.6488 63.7003 26.8809C63.8634 27.2023 63.905 27.6883 63.7708 28.0255C63.6468 28.3372 63.3416 28.4794 63.0539 28.607C63.0315 31.2808 63.0275 33.9546 63.0421 36.6284C63.7792 37.2841 64.4558 38.0216 65.1776 38.6975C67.3187 40.6708 69.44 42.6651 71.5415 44.6806L73.8828 46.8748C74.3502 47.3128 74.8673 47.7438 75.2662 48.2458C74.7719 48.7667 74.1958 49.2592 73.6074 49.6699C72.7522 49.0428 72.0539 48.1998 71.2169 47.5389L71.1635 53.2057C71.1609 54.3176 71.2112 55.4507 71.1465 56.56C71.1369 56.7244 71.1407 56.9072 71.0371 57.0425C70.8202 57.1436 70.5937 57.1224 70.3594 57.1225C70.3513 56.0392 70.4122 54.9573 70.3827 53.8739C69.586 53.0566 68.7268 52.2947 67.9121 51.4944C65.3633 48.9439 62.7686 46.4409 60.128 43.9855C60.1363 46.034 60.1307 48.0824 60.111 50.1308C60.1049 50.8622 60.1658 51.6101 60.124 52.3382C60.1131 52.5265 60.0955 52.6413 59.9528 52.7673C59.8096 52.7469 59.7543 52.7417 59.6573 52.6193C59.6355 52.5917 59.6182 52.5615 59.6053 52.5288C59.5925 52.4961 59.5847 52.4622 59.5819 52.4272C59.5017 51.5207 59.5905 50.4788 59.5921 49.5553C59.5954 47.7401 59.5603 45.9151 59.6124 44.101C59.628 43.5599 59.6846 43.02 59.7389 42.4815C59.4429 42.4399 59.1392 42.4454 58.8405 42.4385C58.4331 42.2053 58.018 41.976 57.6446 41.6898C56.6611 40.9359 55.5384 39.7105 54.6022 38.8358C53.2852 37.6052 51.9445 36.4024 50.6543 35.143C49.8662 34.3737 49.1009 33.5112 48.2171 32.8552C47.5908 33.4114 47.005 34.0332 46.3956 34.6107L41.3662 39.4002C40.1452 40.5605 38.7479 41.6239 37.6217 42.8701C37.8035 42.9023 37.9622 42.9439 38.1348 43.0096C38.2344 43.1208 38.242 43.1469 38.2547 43.3014C38.3586 44.5592 38.2638 45.9035 38.2605 47.1699L38.2533 54.8994C40.0145 54.9035 59.1548 54.8775 59.3758 54.9915C59.4738 55.1624 59.4359 55.3925 59.428 55.5849L37.6085 55.5918C37.4985 51.4041 37.6112 47.195 37.5984 43.0048C36.8974 43.737 36.1094 44.3981 35.3749 45.0978C33.8379 46.5621 32.3126 48.0435 30.7563 49.4869C29.7938 50.3797 28.7893 51.2361 27.8949 52.198C27.5044 52.2048 26.7958 52.3121 26.4398 52.1634C26.288 52.1 26.2775 52.0656 26.2122 51.9255C26.2424 51.5682 26.5062 51.3548 26.7425 51.1138C27.952 49.9066 29.2248 48.7696 30.4665 47.5971L39.969 38.7568L45.9674 33.0854C46.7148 32.3747 47.4212 31.613 48.1946 30.9315C52.9993 35.5352 57.8592 40.08 62.7743 44.5659C64.0517 45.7543 65.359 46.9145 66.6213 48.1184C67.9038 49.3415 69.15 50.6096 70.4152 51.8511C70.5227 50.2234 70.4677 48.5709 70.4642 46.9402C67.7967 44.4995 65.221 41.9346 62.4378 39.6245C62.3771 36.035 62.4075 32.4394 62.4004 28.8492L58.3717 28.8454C58.219 29.6849 58.2871 30.6138 58.2855 31.4665L58.2803 35.7764C57.7978 35.3718 57.5141 34.822 57.0498 34.3945C55.5187 33.0056 53.9953 31.6084 52.4795 30.2029C51.105 28.915 49.774 27.5905 48.3155 26.395C47.5796 27.0241 46.8783 27.6992 46.1563 28.3448C44.1891 30.0828 42.2441 31.8452 40.3212 33.6321L31.0375 42.0843C29.2224 43.7383 27.444 45.4697 25.5669 47.0522C25.5841 48.1337 25.5927 49.2152 25.5925 50.2969C25.5941 50.8862 25.6503 51.5399 25.5492 52.1205C25.3799 52.2194 25.1997 52.1869 25.0115 52.1777C25.0234 50.6672 25.0586 49.1473 24.9896 47.6383C24.1246 48.359 23.3778 49.2243 22.4696 49.8949C21.8885 49.4287 21.4165 48.8716 20.9343 48.3081C22.3374 46.8698 23.8775 45.5514 25.3527 44.1879L34.2383 36.0441L43.9381 27.2164C45.3973 25.8837 46.8035 24.4663 48.3003 23.1782Z" fill="black"></path><path d="M57.536 26.9124L60.9188 26.9C61.5163 26.8982 62.1573 26.8519 62.751 26.9192C62.9345 26.9401 63.114 26.9926 63.2201 27.1582C63.3059 27.2924 63.3083 27.4594 63.2752 27.6098C63.2223 27.8508 63.1186 27.9647 62.9194 28.1003C61.894 28.1228 60.8643 28.1072 59.8384 28.1085C59.2116 28.1093 58.5149 28.174 57.8993 28.068C57.6712 28.0287 57.3452 27.9519 57.1897 27.7625C57.1372 27.6988 57.098 27.6086 57.1085 27.5254C57.1417 27.2653 57.3349 27.0614 57.536 26.9124Z" fill="white"></path><path d="M63.048 37.5623C63.4434 37.8273 63.8156 38.2492 64.1595 38.5817C64.8189 39.2254 65.4829 39.8644 66.1515 40.4987L74.2931 48.1628L73.9843 48.507L73.6421 48.8101C72.7754 48.0756 71.9469 47.2883 71.1026 46.528C68.3672 44.0475 65.6806 41.5153 63.0427 38.9314L63.048 37.5623Z" fill="white"></path><path d="M48.2492 24.1465C48.4542 24.1923 48.6387 24.3684 48.7966 24.4998C50.098 25.5826 51.2952 26.7895 52.5588 27.9156C54.2634 29.4349 56.1022 30.9224 57.6584 32.5931L57.6581 34.0068C54.652 30.9992 51.3568 28.2843 48.316 25.3076C46.7292 26.9475 44.9297 28.4177 43.2491 29.9634L31.6925 40.5432C28.5558 43.2987 25.5574 46.2013 22.4324 48.9655C22.2318 48.7609 22.0613 48.5549 21.8901 48.3258C23.0544 47.0479 24.43 45.888 25.7154 44.7304L29.3921 41.3591L39.3996 32.1939C41.0853 30.6764 42.7826 29.1595 44.4374 27.6095C45.6735 26.4519 46.9009 25.1668 48.2492 24.1465Z" fill="white"></path><path d="M5.35473 78.1196C8.19929 78.0128 11.0817 78.1013 13.9295 78.0973L31.9703 78.1149L70.9547 78.1007L84.3535 78.0933C87.5345 78.1111 90.7154 78.1082 93.8963 78.0846C92.5128 78.8049 91.0704 79.4171 89.6908 80.146C90.7517 80.8771 92.6277 81.6209 93.8477 82.2369C93.1332 82.3511 92.302 82.2341 91.5714 82.2192C90.3439 82.2043 89.1163 82.1984 87.8886 82.2015C82.0459 82.2155 76.2033 82.1999 70.3607 82.1548L5.0636 82.1955C5.67351 81.9258 6.25542 81.5816 6.85036 81.2797C7.6328 80.8827 8.42552 80.5075 9.20624 80.1061C7.95889 79.4136 6.53855 78.9037 5.35473 78.1196Z" fill="#0CD303"></path><path d="M49.4355 6.50049C50.8929 7.70282 52.2639 8.99154 53.6722 10.2488L58.0179 14.0538L85.5833 38.7226L95.7782 47.7722C96.5035 48.4248 98.4097 49.9445 98.8667 50.6207C97.6857 51.6355 96.5591 52.7154 95.3665 53.7149C93.3804 51.7103 91.2495 49.8597 89.1318 47.9969L82.3885 41.9995L49.6239 12.604L49.5345 12.5695C49.1963 12.6752 42.5146 18.8415 41.6445 19.6283L17.5187 41.458L8.06825 49.98C6.68367 51.2312 5.10223 52.3228 3.91601 53.7724C2.74292 52.6362 1.37608 51.6576 0.261597 50.4687C0.868134 49.8788 1.55703 49.3633 2.182 48.7903C4.52557 46.6417 6.90648 44.5443 9.28224 42.4321L25.35 28.0886L39.5985 15.2994C42.0025 13.0964 44.4274 10.9167 46.8734 8.76028C47.7277 8.00766 48.5627 7.23151 49.4355 6.50049Z" fill="#079BF4"></path></g></g><defs><linearGradient id="paint0_linear_4_66" x1="40.6803" y1="64.2143" x2="39.1566" y2="64.0397" gradientUnits="userSpaceOnUse"><stop stop-color="#4ECBD7"></stop><stop offset="1" stop-color="#38C6ED"></stop></linearGradient><clipPath id="clip0_4_66"><rect width="100" height="100" fill="white"></rect></clipPath><clipPath id="clip1_4_66"><rect width="117" height="117" fill="white" transform="translate(-9 -8)"></rect></clipPath></defs></svg> 