<?xml version="1.0" encoding="UTF-8"?> <svg xmlns="http://www.w3.org/2000/svg" width="296" height="128" viewBox="0 0 296 128" fill="none"><g clip-path="url(#clip0_5_97)"><rect width="296" height="128" fill="white"></rect><g clip-path="url(#clip1_5_97)"><path d="M-34 -28H329.689C330.134 -27.3329 329.998 -26.2649 329.998 -25.4902L330.004 108.431L330.002 141.585C330.002 143.882 330.295 151.821 329.933 153.431C329.886 153.641 329.796 153.815 329.689 154H-34V-28Z" fill="#FEFEFE"></path><path d="M250.956 80.3291C253.702 79.8874 256.951 80.2039 259.752 80.2059C259.473 81.8101 256.793 82.9387 255.993 84.3864C255.343 85.5635 256.573 85.711 256.864 86.6447C256.71 87.1452 256.301 87.3419 255.885 87.6164C255.641 88.4444 251.534 92.3284 250.626 92.8368C250.645 92.7913 250.663 92.7452 250.683 92.7004C251.285 91.4147 251.41 81.798 250.956 80.3291Z" fill="#EB5320"></path><path d="M35.4417 79.7229C38.6293 79.656 41.8291 79.707 45.0182 79.7005C45.0189 81.5045 45.2899 91.8614 44.9046 92.7412L44.6186 92.6285C42.5971 90.6667 40.6594 88.6009 38.6878 86.5875C39.1421 86.1035 39.5944 85.6542 39.6319 84.9522C39.7234 83.2399 36.5559 80.8465 35.4417 79.7229Z" fill="#089FC7"></path><path d="M183.76 100.014C184.91 99.2903 185.966 98.1125 187.009 97.2231C188.54 95.9166 190.2 94.7053 191.879 93.5944C193.052 92.8195 195.951 90.667 197.231 90.9281C196.669 91.7334 192.837 93.4661 191.849 94.1088C190.326 95.1 188.872 96.2535 187.486 97.4292C186.485 98.2786 185.276 99.6396 184.128 100.217C184.578 101.235 184.67 109.685 184.311 110.681C184.261 110.822 184.199 110.951 184.126 111.08L186.483 111.076C186.513 111.054 186.544 111.033 186.572 111.01C187.989 109.906 189.318 106.977 190.619 105.456C190.811 105.234 191.005 105.014 191.2 104.796C191.397 104.578 191.595 104.362 191.796 104.148C191.996 103.934 192.198 103.722 192.403 103.513C192.608 103.303 192.815 103.095 193.024 102.89C193.233 102.684 193.445 102.481 193.658 102.28C193.872 102.078 194.087 101.879 194.303 101.683C194.521 101.486 194.741 101.291 194.961 101.099C195.183 100.907 195.406 100.717 195.631 100.529C195.857 100.342 196.085 100.156 196.314 99.9735C196.542 99.7906 196.773 99.6099 197.007 99.4316C197.239 99.2534 197.474 99.0776 197.711 98.9043C197.946 98.7309 198.185 98.56 198.425 98.3915C198.664 98.223 198.906 98.057 199.15 97.8935C199.393 97.73 199.638 97.569 199.884 97.4104C200.131 97.252 200.379 97.0961 200.629 96.9426C200.879 96.7893 201.131 96.6385 201.384 96.4903C201.637 96.3422 201.891 96.1966 202.147 96.0536C202.403 95.9107 202.661 95.7704 202.92 95.6327C203.178 95.495 203.438 95.36 203.7 95.2277C203.962 95.0954 204.225 94.9659 204.489 94.8389C204.754 94.712 205.019 94.5879 205.286 94.4664C205.553 94.345 205.822 94.2263 206.091 94.1104C206.36 93.9945 206.63 93.8814 206.901 93.7709C207.174 93.6606 207.447 93.5531 207.721 93.4484C207.994 93.3436 208.269 93.2417 208.545 93.1426C208.821 93.0436 209.098 92.9474 209.375 92.854C209.654 92.7605 209.933 92.67 210.212 92.5824C210.492 92.4948 210.773 92.41 211.055 92.3281C211.336 92.2462 211.618 92.1672 211.901 92.0912C212.184 92.0151 212.468 91.9419 212.752 91.8717C213.038 91.8015 213.323 91.7343 213.609 91.6699C213.896 91.6055 214.182 91.544 214.469 91.4856L214.487 91.8326L213.661 92.1038C214.012 92.4582 214.659 92.2492 215.141 92.3523C215.113 92.367 215.086 92.3825 215.059 92.3965C213.554 93.1588 211.284 93.3243 209.633 93.8751C204.15 95.7035 198.921 99.0516 194.694 102.96C193.393 104.161 192.089 105.471 190.971 106.846C189.972 108.074 188.996 110.289 187.749 111.165C190.676 111.165 215.68 111.463 216.707 111.026L216.767 110.782C217.094 110.931 217.141 110.961 217.338 111.261C217.117 111.526 217.091 111.51 216.75 111.557C214.46 111.871 209.868 111.577 207.326 111.591C201.306 111.624 195.167 111.948 189.16 111.666C188.623 111.641 187.941 111.638 187.5 111.311C187.615 111.037 187.752 110.811 187.67 110.508C187.439 110.794 187.061 111.485 186.736 111.584C186.215 111.743 184.72 111.775 184.238 111.532C183.24 109.444 184.247 102.886 183.789 100.178L183.76 100.014Z" fill="#FEFBF0"></path><path d="M184.24 119.075C185.762 118.827 187.484 118.98 189.032 118.983L197.709 118.985C208.748 118.961 219.796 118.889 230.831 119.034C231.475 120.105 231.921 121.18 232.691 122.202C233.062 122.696 233.814 123.276 233.926 123.874C233.215 124.146 188.394 123.947 184.039 124.012C184.057 123.985 184.077 123.958 184.094 123.93C184.677 122.968 184.509 120.161 184.24 119.075Z" fill="#F68D0C"></path><path d="M38.1172 115.535C38.4252 115.498 38.7442 115.451 39.0544 115.449C39.2298 115.448 39.5126 115.462 39.6709 115.527C40.5795 115.899 47.0437 122.628 48.2054 123.836L11.2334 123.821C7.91395 123.813 4.59452 123.828 1.27515 123.866C12.0709 118.561 26.2127 116.424 38.1172 115.535Z" fill="#099262"></path><path d="M255.467 115.698C256.842 115.735 258.216 115.794 259.589 115.875C269.691 116.463 279.268 118.401 288.899 121.487C290.445 121.982 293.422 122.704 294.487 123.901L285.878 123.899L247.101 123.908C248.87 122.937 253.818 117.443 255.467 115.698Z" fill="#F68D0C"></path><path d="M220.757 112.321C224.294 112.184 227.858 112.253 231.397 112.233C231.413 112.317 230.481 117.867 230.421 117.985L194.7 117.976C191.163 117.923 187.615 117.967 184.077 117.963C184.158 117.829 184.237 117.69 184.29 117.542C184.676 116.477 184.626 113.408 184.141 112.421C196.337 112.422 208.567 112.568 220.757 112.321Z" fill="#F68D0C"></path><path d="M197.231 90.9281L197.364 90.899C198.482 90.6455 199.552 90.1216 200.626 89.7176C202.265 89.0993 203.933 88.5669 205.627 88.1204C211.691 86.5326 221.732 87.1274 227.222 90.3505C227.396 90.4525 227.503 90.5662 227.629 90.72C223.24 90.7575 218.806 90.7127 214.469 91.4857C214.183 91.5441 213.896 91.6055 213.609 91.67C213.324 91.7343 213.038 91.8016 212.752 91.8717C212.468 91.942 212.184 92.0151 211.901 92.0912C211.618 92.1673 211.336 92.2462 211.055 92.3281C210.773 92.41 210.492 92.4948 210.213 92.5825C209.933 92.67 209.654 92.7605 209.375 92.8539C209.098 92.9474 208.821 93.0436 208.545 93.1427C208.269 93.2417 207.994 93.3436 207.721 93.4484C207.447 93.5531 207.174 93.6607 206.901 93.771C206.63 93.8814 206.36 93.9946 206.091 94.1104C205.822 94.2263 205.554 94.345 205.286 94.4664C205.019 94.5879 204.754 94.7121 204.489 94.839C204.225 94.9659 203.962 95.0955 203.7 95.2279C203.439 95.3601 203.178 95.4951 202.92 95.6327C202.661 95.7704 202.403 95.9107 202.147 96.0536C201.891 96.1966 201.637 96.3422 201.384 96.4903C201.131 96.6385 200.879 96.7893 200.629 96.9426C200.379 97.0961 200.131 97.252 199.884 97.4104C199.638 97.569 199.393 97.73 199.15 97.8935C198.906 98.057 198.665 98.223 198.425 98.3915C198.185 98.56 197.946 98.731 197.711 98.9043C197.474 99.0777 197.239 99.2534 197.007 99.4316C196.773 99.61 196.542 99.7906 196.314 99.9736C196.085 100.156 195.858 100.342 195.631 100.529C195.406 100.717 195.183 100.907 194.961 101.099C194.741 101.292 194.522 101.486 194.304 101.683C194.087 101.879 193.872 102.078 193.658 102.28C193.445 102.481 193.234 102.684 193.024 102.89C192.815 103.095 192.609 103.303 192.404 103.513C192.199 103.722 191.996 103.934 191.796 104.148C191.595 104.362 191.397 104.578 191.2 104.796C191.005 105.014 190.811 105.234 190.619 105.456C189.318 106.977 187.989 109.906 186.572 111.01C186.544 111.033 186.513 111.054 186.483 111.076L184.126 111.08C184.199 110.951 184.262 110.822 184.311 110.681C184.67 109.685 184.578 101.235 184.128 100.217C185.276 99.6396 186.485 98.2787 187.486 97.4293C188.872 96.2536 190.326 95.1001 191.849 94.1089C192.837 93.4662 196.669 91.7334 197.231 90.9281Z" fill="#F68D0C"></path><path d="M215.141 92.3524C219.577 92.0592 228.018 90.6577 231.866 93.4759C226.42 93.6645 221.218 94.5133 216.174 96.6584C214.403 97.4115 212.557 98.5676 210.772 99.1705C211.359 99.7028 216.739 109.992 216.765 110.604C216.767 110.663 216.765 110.723 216.767 110.783L216.707 111.026C215.679 111.464 190.676 111.165 187.749 111.165C188.996 110.289 189.972 108.074 190.971 106.846C192.089 105.472 193.393 104.161 194.694 102.96C198.921 99.0518 204.15 95.7036 209.633 93.8753C211.284 93.3245 213.554 93.159 215.059 92.3967C215.086 92.3827 215.113 92.3672 215.141 92.3524Z" fill="#F68D0C"></path><path d="M15.9345 90.2972C15.0711 89.5045 13.4206 88.2892 13.0309 87.2041C12.9274 86.9162 13.0398 86.733 13.1812 86.4786C13.7702 85.4197 22.9808 76.2464 24.3417 75.1358C24.5322 74.9803 24.7709 74.8942 25.0048 74.8281C25.4085 74.8292 25.688 74.8935 26.0185 75.1264C27.1688 75.9368 28.1866 77.1152 29.1887 78.1079C31.4251 80.3235 33.6219 82.6493 36.023 84.6862C36.1228 85.1113 36.3352 85.5539 36.0414 85.9459C35.2031 87.0655 25.5938 96.3347 24.368 97.2778C24.1627 97.4358 23.8974 97.5214 23.6384 97.5198C23.3158 97.5177 22.9365 97.3162 22.679 97.1319C21.7297 95.9625 20.5026 94.8979 19.4254 93.8436C15.666 97.0478 15.1884 98.6316 10.097 100.38C5.81413 104.982 2.51662 109.63 0.402648 115.601C0.245175 108.185 2.45246 101.433 6.81087 95.4334C12.048 93.8759 11.8505 94.324 15.9345 90.2972Z" fill="#51AA3B"></path><path d="M270.138 74.4639L270.294 74.4696C270.76 74.482 270.994 74.6217 271.343 74.9125C273.731 76.9063 275.866 79.386 278.082 81.5857C279.707 83.1986 281.619 84.7607 283.077 86.5064C283.265 86.7322 283.363 86.9501 283.393 87.2458C283.384 87.281 283.377 87.3165 283.366 87.3514C283.05 88.4949 281.385 89.8495 280.361 90.4017C281.744 91.0684 282.302 92.4659 283.457 93.3457C284.799 94.3682 287.296 94.6851 288.929 95.1342C290.973 96.6757 292.968 101.457 293.812 103.886C294.828 106.813 296.464 112.911 295.052 115.836C295.115 115.59 295.175 115.332 295.163 115.077C295.061 113.027 292.859 108.986 291.299 107.7C291.272 107.553 291.252 107.433 291.18 107.299C290.414 105.895 286.802 101.167 285.538 100.357C284.251 99.5328 282.574 99.1254 281.095 98.7776C281.084 98.7321 281.079 98.685 281.063 98.6409C280.711 97.6374 277.435 94.63 276.435 94.0385C276.396 94.1705 276.346 94.3102 276.271 94.4261C275.674 95.3343 273.483 97.4597 272.469 97.7066C270.818 97.7341 261.581 86.8383 259.107 85.3489C259.068 85.325 259.027 85.3023 258.988 85.279C260.401 84.3886 261.898 82.6183 263.082 81.4211C265.406 79.0729 267.699 76.6948 270.138 74.4639Z" fill="#F68D0C"></path><path d="M78.574 92.4216C83.6016 89.7744 91.804 89.5439 97.168 91.2212C100.187 92.1653 102.737 93.81 105.26 95.6802C103.565 97.0752 101.943 98.5728 100.165 99.8623C91.3108 106.282 80.9426 109.654 69.9679 108.896C70.6637 103.571 73.1014 98.9253 77.3864 95.6146C78.5619 94.7064 79.9713 94.0493 81.283 93.359C80.1718 93.5943 79.2483 94.0521 78.1871 94.3642C78.018 94.353 77.851 94.3493 77.6819 94.3651C75.3298 94.5832 72.2671 97.5723 70.5663 99.0909C70.2871 99.3403 69.8207 99.5966 69.6021 99.8763C69.4011 100.134 69.5941 100.619 69.2653 101.006C68.0297 100.644 67.8729 104.042 66.3759 104.802C66.3277 104.826 66.2776 104.847 66.2319 104.876C65.7092 107.238 64.668 109.228 64.3559 111.637L64.2125 111.58C63.8094 111.077 63.5316 110.373 63.3393 109.76C62.7755 107.962 65.6134 104.428 66.5666 102.952C67.0833 102.152 67.4233 101.327 68.0578 100.597C69.5168 98.9189 71.2794 97.3448 73.0896 96.0516C74.0869 95.3393 78.1792 93.2719 78.5377 92.5113C78.5514 92.4822 78.5619 92.4514 78.574 92.4216Z" fill="#51AA3B"></path><path d="M31.0855 92.222L35.1316 88.1233C37.1085 89.973 38.9902 91.9225 40.9062 93.8346C41.8331 94.7594 42.7735 95.8514 43.8296 96.6222C45.2596 98.3635 47.0126 99.8987 48.6312 101.465L56.8237 109.429C58.3059 110.892 60.1372 112.414 61.1811 114.224C61.6496 115.037 61.737 115.91 61.6512 116.84C61.4912 118.572 60.4881 120.133 59.1629 121.224C59.076 121.294 58.9876 121.363 58.8975 121.429C58.8074 121.495 58.7156 121.559 58.6222 121.62C58.529 121.682 58.4342 121.741 58.338 121.798C58.2418 121.855 58.1442 121.909 58.0453 121.962C57.9465 122.014 57.8464 122.063 57.7451 122.111C57.6437 122.158 57.5412 122.203 57.4378 122.245C57.3342 122.287 57.2297 122.327 57.1243 122.363C57.0188 122.401 56.9125 122.435 56.8052 122.467C56.6981 122.499 56.5902 122.528 56.4816 122.554C56.3731 122.581 56.2639 122.605 56.154 122.626C56.0443 122.647 55.9341 122.665 55.8234 122.681C55.7128 122.697 55.6018 122.71 55.4905 122.72C55.3792 122.73 55.2677 122.738 55.156 122.743C55.0443 122.747 54.9326 122.749 54.8208 122.749C54.709 122.748 54.5972 122.744 54.4856 122.738C54.374 122.732 54.2626 122.723 54.1515 122.711C53.2429 122.608 52.4287 122.357 51.6872 121.817C49.2769 120.062 47.2062 117.548 45.0812 115.443C40.9897 111.456 36.9259 107.442 32.8896 103.399C30.7273 101.26 28.5968 98.9189 26.2971 96.938C27.4076 95.4847 29.0397 94.2077 30.3751 92.9472C35.4862 98.2316 40.8138 103.294 46.0399 108.461C48.7606 111.151 51.5676 114.388 54.4533 116.828C55.022 117.309 55.6411 117.758 56.3797 117.917L56.6503 117.624C56.4851 116.945 55.9004 116.274 55.4426 115.765C51.8648 111.786 47.71 108.24 43.8786 104.504C39.6819 100.411 35.6216 95.9305 31.0855 92.222Z" fill="#9CC726"></path><path d="M259.909 88.5049C260.056 88.5228 260.204 88.5477 260.341 88.6135C261.226 89.0427 263.817 91.5664 264.061 92.4349C264.02 92.9905 248.523 108.088 246.851 109.698C245.594 110.909 239.462 116.412 239.045 117.57C238.997 117.703 238.995 117.91 238.973 118.054L239.277 118.346C239.56 118.382 239.835 118.404 240.1 118.276C240.545 118.062 262.413 96.3904 264.731 94.0171C264.914 93.8296 265.001 93.67 265.077 93.4189C265.57 93.6594 265.941 94.049 266.339 94.4183C267.008 95.0396 268.998 96.6568 269.03 97.5245L268.57 97.8811C268.548 97.9762 268.545 98.0203 268.484 98.1114C267.455 99.6581 262.626 103.762 260.982 105.375C257.332 108.96 253.768 112.645 250.13 116.247C248.461 117.9 246.796 119.774 244.938 121.212C243.785 122.105 242.587 122.784 241.101 122.884C240.998 122.892 240.895 122.897 240.792 122.899C240.687 122.901 240.584 122.901 240.481 122.898C240.378 122.895 240.274 122.89 240.171 122.882C240.067 122.874 239.964 122.863 239.862 122.85C239.759 122.837 239.657 122.821 239.555 122.802C239.453 122.784 239.351 122.763 239.251 122.74C239.15 122.717 239.05 122.691 238.95 122.662C238.851 122.634 238.752 122.603 238.654 122.57C238.556 122.537 238.46 122.501 238.364 122.463C238.267 122.425 238.171 122.384 238.078 122.341C237.983 122.298 237.89 122.253 237.799 122.206C237.706 122.158 237.616 122.108 237.527 122.056C237.437 122.004 237.348 121.95 237.262 121.893C237.175 121.837 237.09 121.778 237.006 121.718C236.922 121.657 236.839 121.594 236.759 121.529C236.678 121.464 236.6 121.398 236.523 121.329C235.252 120.206 234.464 118.72 234.381 117.015C234.319 115.734 234.505 114.352 235.218 113.259C236.686 111.008 239.963 108.362 241.945 106.413L252.485 95.9809C254.978 93.5198 257.554 91.1014 259.909 88.5049Z" fill="#F68D0C"></path><path d="M148 1.90723C149.966 2.99798 172.245 17.5114 172.517 18.0251C171.313 18.0466 169.259 16.3245 168.253 15.5839C168.216 15.714 168.2 15.6655 168.233 15.7344C166.648 15.8265 161.878 16.7381 160.847 17.8808C160.658 18.088 160.724 18.5346 160.584 18.7785C160.193 19.4551 158.414 18.2823 157.765 20.7816C158.581 21.6734 160.587 22.1336 161.037 23.2579L160.985 23.6109C159.841 22.5596 158.309 21.7168 157.002 20.8722C153.997 18.9287 150.927 17.0808 147.956 15.0839C136.054 22.9405 123.98 30.579 112.224 38.6508C112.22 34.516 112.54 29.3764 112.082 25.3572C113.148 24.4694 114.459 23.7087 115.617 22.929C118.765 20.8392 121.934 18.7832 125.125 16.761L148 1.90723Z" fill="#9CC726"></path><path d="M62.4277 110.046C62.6101 109.395 62.8214 108.753 63.0615 108.121C63.3017 107.489 63.5698 106.869 63.8658 106.261C66.687 100.459 72.3876 94.5696 78.574 92.4216C78.5619 92.4515 78.5515 92.4822 78.5378 92.5114C78.1793 93.2719 74.0869 95.3393 73.0897 96.0517C71.2795 97.3449 69.5169 98.9189 68.0578 100.597C67.4233 101.327 67.0833 102.152 66.5666 102.952C65.6135 104.428 62.7756 107.962 63.3393 109.76C63.5316 110.373 63.8095 111.077 64.2126 111.58L64.356 111.637C64.6681 109.228 65.7093 107.238 66.232 104.876C66.2776 104.847 66.3278 104.826 66.3759 104.802C67.873 104.042 68.0297 100.644 69.2654 101.006C69.5942 100.619 69.4012 100.134 69.6022 99.8763C69.8208 99.5966 70.2872 99.3403 70.5664 99.0909C72.2671 97.5724 75.3298 94.5832 77.682 94.3652C77.851 94.3493 78.0181 94.3531 78.1871 94.3643C77.5219 94.7215 76.8602 95.0851 76.202 95.455C69.7954 99.0689 66.6278 104.671 64.7155 111.552C70.2281 112.87 74.3125 113.081 79.9241 111.987C90.6376 109.898 99.2556 104.925 105.4 95.7988C107.987 98.037 109.991 100.875 112.013 103.607C112.176 110.342 112.067 117.13 111.955 123.865C95.0404 123.86 78.0399 123.494 61.1353 123.955C61.6751 123.551 62.1839 123.111 62.6616 122.635C64.2815 121.05 65.376 118.85 65.3723 116.557C65.3684 113.983 64.1944 111.83 62.4277 110.046Z" fill="url(#paint0_linear_5_97)"></path><path d="M213.129 26.1191C213.154 26.1191 213.177 26.1181 213.202 26.1191C213.243 26.1211 213.282 26.1261 213.323 26.1282C213.447 26.1351 213.401 26.1246 213.536 26.1435C214.062 26.2164 271.664 63.1641 272.985 64.9107L264.853 64.9155C264.869 64.9431 264.889 64.9699 264.905 64.998C265.385 65.8597 265.376 73.7205 265.083 74.9174C264.757 75.6717 263.913 76.2687 263.225 76.6752L246.987 76.6485C247.162 76.9503 247.272 77.2251 247.295 77.5763C247.556 81.5568 247.35 85.6746 247.352 89.6699C247.352 91.586 247.636 93.9982 247.306 95.8579C247.233 96.2684 247.213 96.27 246.89 96.5027C246.211 97.7566 237.217 106.48 236.052 107.117C236.147 106.967 236.233 106.809 236.279 106.636C236.645 105.299 236.373 95.5552 236.373 93.4853L236.389 74.8434C236.387 71.8275 236.487 68.7667 236.359 65.7559C236.343 65.3855 236.281 65.118 236.092 64.7933C241.365 64.7102 246.639 64.707 251.913 64.7837C251.861 64.6696 251.82 64.5764 251.733 64.4836C250.754 63.4258 247.862 61.9957 246.474 61.1264C239.279 56.6232 232.068 52.1053 224.956 47.4754C222.332 45.7359 219.696 44.016 217.046 42.3157C215.783 41.5072 214.469 40.5165 213.086 39.9442C213.113 39.8928 213.14 39.8424 213.165 39.7899C213.477 39.1101 213.376 26.8164 213.129 26.1191Z" fill="#EB5320"></path><path d="M82.5889 26.3677C82.727 26.3968 82.8122 26.4782 82.9256 26.5587C83.1442 31.0348 82.9458 35.6143 82.9439 40.1014C69.757 48.2031 56.8757 56.8436 43.7872 65.1122C49.1466 65.1863 54.5136 65.1182 59.8738 65.107L59.896 107.742C56.3669 104.074 52.7253 100.519 49.1514 96.8954C49.121 96.8664 49.0899 96.838 49.0602 96.8083C48.795 96.544 48.6379 96.3398 48.5754 95.9577C48.2169 93.7651 48.5331 91.1082 48.5585 88.862C48.5883 84.8189 48.593 80.7757 48.5725 76.7326C43.258 76.8351 37.9439 76.8212 32.6301 76.6907C31.9622 76.1276 31.3475 75.4842 30.7205 74.8755L30.7097 64.5914L22.4592 64.6035C28.6821 60.3555 35.1713 56.4084 41.5241 52.3517L82.5889 26.3677Z" fill="#089FC7"></path><path d="M86.1779 18.3585C94.6093 12.6085 103.369 7.30186 111.98 1.82373L112.032 21.3416C108.991 23.8928 104.389 26.4739 100.966 28.6081L101.018 21.1552C99.8171 21.821 98.6741 22.6508 97.5264 23.4071L97.525 34.6719C102.452 31.7247 107.25 28.4651 112.082 25.3572C112.54 29.3765 112.22 34.516 112.224 38.6509C107.076 41.6855 102.139 45.2256 97.1534 48.5242C90.7409 52.7665 84.2283 56.8773 77.8829 61.2189C82.6844 64.1053 87.3362 67.3263 92.0138 70.4106L112.012 83.5039L111.984 96.4268C109.574 95.1898 107.329 93.4718 105.075 91.9769L94.6434 85.1597C82.1883 76.924 69.7601 68.5076 57.0208 60.7241C66.3696 54.1191 76.7719 48.3847 86.198 41.8179L86.1779 18.3585Z" fill="#099262"></path><path d="M183.687 1.39844C185.536 2.25156 209.443 17.5934 209.813 18.1199C210.188 19.1591 210.145 40.93 209.788 41.7292C209.777 41.7523 209.766 41.7747 209.754 41.7973C211.802 42.5726 239.187 60.3803 239.409 60.7161C238.446 61.8665 235.637 63.1718 234.223 64.0772L218.483 74.1757L186.003 95.2538C185.431 95.6194 184.805 96.0945 184.141 96.2525C184.576 94.8574 184.709 84.364 184.242 83.0209C186.577 81.8112 217.56 61.5566 217.784 61.2239C216.83 60.2136 214.48 59.0909 213.239 58.2505L172.757 31.2404L164.334 25.7081C163.323 25.048 162.107 24.0386 160.985 23.611L161.037 23.258C160.587 22.1336 158.581 21.6735 157.765 20.7816C158.414 18.2823 160.193 19.4552 160.584 18.7786C160.724 18.5347 160.658 18.0881 160.847 17.8808C161.878 16.7382 166.648 15.8266 168.233 15.7345C168.2 15.6655 168.216 15.7141 168.253 15.584C169.259 16.3246 171.314 18.0466 172.517 18.0251C173.432 18.2907 198.315 34.6264 198.479 34.8628C198.514 34.9119 198.543 34.9935 198.564 35.0446C199.024 34.0371 199.131 24.7271 198.727 23.6431C198.688 23.537 198.683 23.5328 198.64 23.4427C197.858 22.5828 195.869 21.344 194.783 20.9133C195.254 21.8793 195.386 27.4367 195.006 28.4683C194.952 28.6082 194.885 28.7395 194.812 28.8689C194.33 28.2122 184.859 22.0574 183.744 21.5985C184.279 20.3675 184.094 2.45773 183.789 1.62896C183.748 1.52001 183.734 1.49335 183.687 1.39844Z" fill="url(#paint1_linear_5_97)"></path><path d="M146.683 27.8373C148.054 27.7514 149.58 27.7118 150.871 28.2549C152.691 29.0219 154.53 30.5612 156.176 31.6813L166.632 38.8001L185.26 51.2184C187.711 52.8678 190.381 54.4027 192.722 56.196C193.522 56.8094 194.238 57.5888 194.611 58.538C194.634 58.5936 194.654 58.6497 194.673 58.7064C194.693 58.763 194.712 58.8201 194.728 58.8775C194.745 58.935 194.76 58.9929 194.773 59.0512C194.787 59.1095 194.799 59.1681 194.81 59.2269C194.821 59.2858 194.83 59.3449 194.839 59.4041C194.846 59.4635 194.852 59.5231 194.858 59.5828C194.863 59.6424 194.866 59.7021 194.867 59.7619C194.869 59.8218 194.87 59.8816 194.869 59.9414C194.868 60.0014 194.865 60.0612 194.862 60.121C194.857 60.1807 194.851 60.2402 194.844 60.2996C194.837 60.3591 194.829 60.4183 194.819 60.4773C194.81 60.5364 194.798 60.5952 194.785 60.6536C194.772 60.712 194.758 60.7701 194.743 60.8278C194.726 60.8856 194.708 60.943 194.689 60.9998C194.671 61.0567 194.652 61.1131 194.631 61.1689C194.608 61.2248 194.585 61.2801 194.561 61.3349C194.042 62.4878 193.052 63.3209 191.878 63.7556C187.395 65.413 184.253 60.558 180.559 58.9292L180.405 58.8624C180.501 59.0163 180.59 59.1779 180.641 59.3537C181.023 60.6757 180.76 75.2177 180.757 77.6301C180.734 92.632 181.037 107.683 180.689 122.678C180.678 123.164 180.657 123.523 180.391 123.948L149.733 123.933L115.494 123.93L115.469 80.5574L115.464 67.2833C115.464 64.5474 115.551 61.7751 115.366 59.0453C112.925 60.4283 109.825 63.5244 107.192 64.1902C107.122 64.2075 107.052 64.2229 106.981 64.2366C106.911 64.2502 106.84 64.262 106.768 64.2721C106.697 64.2822 106.625 64.2904 106.554 64.2968C106.482 64.3032 106.41 64.3078 106.338 64.3107C106.266 64.3134 106.194 64.3143 106.122 64.3133C106.05 64.3125 105.978 64.3098 105.906 64.3052C105.834 64.3007 105.762 64.2943 105.691 64.2862C105.619 64.2779 105.548 64.2678 105.477 64.2559C105.406 64.2441 105.335 64.2305 105.265 64.2151C105.194 64.1997 105.124 64.1825 105.055 64.1635C104.985 64.1444 104.916 64.1237 104.848 64.1011C104.779 64.0786 104.712 64.0544 104.644 64.0284C104.577 64.0026 104.511 63.975 104.445 63.9456C104.379 63.9162 104.314 63.8852 104.25 63.8527C104.186 63.82 104.122 63.7857 104.06 63.7499C103.997 63.714 103.936 63.6766 103.875 63.6376C103.81 63.5968 103.747 63.5545 103.684 63.5105C103.621 63.4666 103.559 63.4211 103.499 63.3742C103.438 63.3273 103.379 63.2789 103.321 63.2292C103.263 63.1793 103.206 63.128 103.15 63.0754C103.095 63.0228 103.04 62.9689 102.988 62.9135C102.935 62.8582 102.883 62.8016 102.833 62.7438C102.782 62.686 102.734 62.627 102.686 62.5668C102.639 62.5066 102.593 62.4452 102.549 62.3828C102.505 62.3204 102.462 62.2568 102.421 62.1923C102.38 62.1277 102.34 62.0622 102.302 61.9957C102.264 61.9292 102.228 61.8619 102.193 61.7936C102.158 61.7254 102.125 61.6563 102.094 61.5864C102.063 61.5165 102.033 61.4458 102.005 61.3745C101.978 61.3032 101.951 61.2312 101.927 61.1586C101.903 61.0859 101.88 61.0128 101.86 60.9391C101.839 60.8654 101.82 60.7912 101.803 60.7165C101.534 59.5094 101.786 58.3132 102.476 57.2923C103.529 55.7362 132.299 36.7107 136.666 33.7595C138.995 32.1861 141.268 30.3767 143.674 28.9442C144.661 28.357 145.576 28.0724 146.683 27.8373Z" fill="#065199"></path><path d="M140.032 84.9128C145.373 84.9579 150.712 84.954 156.052 84.9009C156.162 85.058 156.242 85.2231 156.275 85.4144C156.661 87.6339 156.364 93.1161 156.368 95.6264C156.375 101.712 156.659 107.938 156.35 114.008C156.331 114.392 156.258 114.657 156.039 114.98C154.966 115.363 142.235 115.053 140.006 115.047L140.032 84.9128Z" fill="#FEFEFE"></path><path d="M143.083 99.2634C143.21 99.2917 143.336 99.321 143.46 99.3583C143.934 99.5005 144.362 99.8231 144.579 100.276C144.755 100.642 144.748 101.013 144.611 101.389C144.344 102.128 143.79 102.375 143.121 102.677C143.018 102.639 142.915 102.598 142.813 102.555C142.232 102.31 141.722 101.94 141.504 101.319C141.365 100.923 141.439 100.542 141.628 100.18C141.918 99.628 142.534 99.4429 143.083 99.2634Z" fill="#065199"></path><path d="M147.223 37.0896C147.691 37.0981 148.197 37.126 148.652 37.2368C149.225 37.3763 149.761 37.696 150.252 38.0108C152.516 39.4632 171.411 52.6392 171.617 52.9748C171.669 53.0674 171.713 53.1591 171.749 53.2604C172.152 54.445 171.873 68.7983 171.873 71.2137L171.868 98.7789C171.868 103.748 171.959 108.738 171.847 113.705C171.836 114.211 171.809 114.598 171.569 115.057L158.693 115.072C158.785 114.932 158.865 114.784 158.909 114.621C159.309 113.176 159.014 107.349 159.014 105.445C159.02 98.0632 159.288 90.5544 158.957 83.1858C158.94 82.8145 158.885 82.5599 158.684 82.24L148 82.2416L137.215 82.3022L137.264 115.032L123.964 115.044L123.937 53.075C128.108 49.7331 133.336 46.6334 137.776 43.5707C140.779 41.4996 143.854 38.472 147.223 37.0896Z" fill="#FEFEFE"></path><path d="M138.74 57.1223L147.248 57.1269L147.25 65.0066C144.42 65.0525 141.586 65.0071 138.756 65.0011L138.74 57.1223Z" fill="#065199"></path><path d="M148.734 57.2199C151.562 57.1826 154.58 56.9496 157.39 57.2361C157.396 57.2994 157.4 57.3627 157.404 57.4261C157.484 58.813 157.795 64.1382 157.068 64.9412C154.349 65.3166 151.265 65.0237 148.512 65.0006C149.17 63.9298 148.754 58.6866 148.734 57.2199Z" fill="#065199"></path><path d="M138.776 47.2449C141.585 47.3174 144.401 47.2797 147.211 47.2779C147.319 50.0154 147.234 52.7875 147.239 55.5289L138.754 55.533L138.776 47.2449Z" fill="#065199"></path><path d="M148.587 47.4124C151.294 47.0155 154.386 47.2919 157.134 47.2922C157.148 47.3162 157.162 47.3397 157.173 47.3642C157.194 47.4049 157.21 47.4468 157.23 47.4877C157.303 47.6381 157.376 47.7911 157.409 47.9557C157.587 48.8214 157.685 54.2111 157.397 54.9865C157.338 55.1429 157.177 55.3351 157.084 55.481C155.175 55.8675 150.609 55.5565 148.496 55.5428C148.555 55.439 148.558 55.436 148.613 55.3118C149.004 54.414 148.926 48.3419 148.587 47.4124Z" fill="#065199"></path></g></g><defs><linearGradient id="paint0_linear_5_97" x1="62.0786" y1="120.623" x2="112.596" y2="108.921" gradientUnits="userSpaceOnUse"><stop stop-color="#82C337"></stop><stop offset="1" stop-color="#389D3F"></stop></linearGradient><linearGradient id="paint1_linear_5_97" x1="239.208" y1="52.5444" x2="155.971" y2="46.7884" gradientUnits="userSpaceOnUse"><stop stop-color="#FF9818"></stop><stop offset="1" stop-color="#CFB315"></stop></linearGradient><clipPath id="clip0_5_97"><rect width="296" height="128" fill="white"></rect></clipPath><clipPath id="clip1_5_97"><rect width="364" height="182" fill="white" transform="translate(-34 -28)"></rect></clipPath></defs></svg> 