<svg width="1024" height="1024" viewBox="0 0 1024 1024" fill="none" xmlns="http://www.w3.org/2000/svg">
<path d="M0 0H1024V1024H0V0Z" fill="#F8F8F9"/>
<path d="M641.996 66.0372C642.043 66.0386 642.091 66.0389 642.139 66.0415C644.22 66.1549 645.18 66.6365 646.787 67.9572C685.977 100.766 724.998 133.775 763.849 166.983L916.728 295.513C925.783 303.084 936.364 310.367 944.229 319.154C944.937 333.16 944.437 347.465 944.454 361.505L944.228 448.586L944.348 697.128C951.159 700.387 958.179 703.403 965.135 706.339C968.355 707.698 972.246 708.789 975.176 710.675C976.559 711.566 977.708 712.802 978.4 714.3C979.035 715.673 979.321 717.163 979.432 718.664C979.871 724.588 980.047 760.187 978.71 763.706C977.885 765.88 975.624 766.739 973.68 767.691C966.484 771.214 958.804 774.043 951.409 777.136L905.183 796.272C866.563 812.579 827.857 828.68 789.065 844.575C788.98 852.652 790.08 878.54 788.457 884.672C782.704 888.814 767.889 893.636 760.508 896.672C735.012 907.16 709.419 918.374 683.391 927.448C665.213 920.738 648.031 911.498 629.587 905.272C595.61 918.236 561.741 931.474 527.979 944.987C511.239 951.608 494.488 959.353 477.345 964.765C449.778 954.79 422.289 944.604 394.878 934.209L239.913 877L202.038 863.105C194.365 860.302 185.574 857.931 178.571 853.715C175.812 850.358 177.098 810.882 177.124 803.842C151.217 793.869 125.23 784.11 99.1606 774.567C83.9834 769.021 65.1024 762.848 50.616 756.291C48.9149 755.521 46.0916 754.36 45.3098 752.633C43.8746 749.464 43.893 706.474 45.2577 703.25C45.923 701.678 47.1043 700.925 48.5273 700.103C52.8268 697.617 57.8347 695.879 62.3904 693.893C72.0275 689.732 81.6282 685.489 91.1925 681.164C91.0752 669.568 89.9931 583.167 92.177 578.712C93.4582 576.098 169.554 546.403 176.65 543.461C177.861 526.065 176.95 505.878 176.958 488.12C176.97 462.27 177.664 436.21 176.622 410.393C170.743 408.695 140.242 398.02 136.938 394.812C136.285 393.049 135.997 391.395 135.887 389.519C135.619 384.954 136.098 380.266 136.083 375.684C136.063 369.56 134.939 362.089 136.179 356.166C142.04 349.603 149.991 344.509 156.978 339.194C163.778 334.022 170.419 328.629 177.154 323.372L271.945 249.428L337.644 197.786C345.4 191.718 358.771 180.014 366.754 175.414C375.436 170.413 386.332 167.534 395.652 163.709C425.507 151.657 455.422 139.756 485.396 128.005L597.04 83.5211C611.915 77.6993 626.817 70.9555 641.996 66.0372Z" fill="black"/>
<path d="M943.343 709.216C948.531 711.188 953.581 713.652 958.646 715.923C957.21 716.6 955.769 717.265 954.322 717.92C950.691 719.563 947.035 721.147 943.353 722.672L943.343 709.216Z" fill="#F8F8F9"/>
<path d="M175.671 383.402L176.188 383.579C177.3 388.043 176.484 394.19 176.451 398.851C173.611 397.503 170.556 396.457 167.626 395.308L162.956 393.644C167.037 390.016 171.303 386.673 175.671 383.402Z" fill="#F8F8F9"/>
<path d="M90.5483 693.995C90.5764 694.019 90.6114 694.036 90.6325 694.067C92.1548 696.256 91.2236 711.351 91.1745 715.089L73.8638 708.855L64.5413 705.481C73.2509 701.739 81.7827 697.613 90.5483 693.995Z" fill="#F8F8F9"/>
<path d="M678.375 436.543C679.761 438.097 678.993 460.927 678.982 464.672C674.146 466.5 669.411 468.567 664.663 470.607C663.106 468.765 664.129 445.685 664.282 441.972C669.001 440.219 673.699 438.41 678.375 436.543Z" fill="#F8F8F9"/>
<path d="M240.477 739.539C242.063 742.976 240.995 766.327 240.968 771.648C231.891 768.544 222.966 764.791 214.029 761.295L201.2 756.445C214.128 750.484 227.499 745.429 240.477 739.539Z" fill="#F8F8F9"/>
<path d="M636.132 864.78C650.182 871.733 664.302 878.541 678.492 885.204L678.426 912.902C663.943 908.504 650.526 900.675 636.191 895.786C635.956 885.459 636.113 875.109 636.132 864.78Z" fill="#F8F8F9"/>
<path d="M635.773 825.321C650.255 829.613 664.055 836.644 678.482 841.276C678.504 851.798 678.749 862.372 678.367 872.886C664.636 867.197 648.619 859.297 635.935 851.58L635.773 825.321Z" fill="#F8F8F9"/>
<path d="M428.4 413.188C438.345 417.277 448.624 420.558 458.478 424.854L458.366 466.872C448.243 463.903 438.236 459.026 428.501 454.929L428.4 413.188Z" fill="#F8F8F9"/>
<path d="M822.15 631.94L822.82 632.159C823.869 635.668 823.041 663.58 823.03 669.573C812.008 673.822 801.199 678.717 790.346 683.378L790.113 683.301C789.925 683.042 789.675 682.818 789.548 682.525C789.079 681.443 789.432 649.97 789.402 645.999C800.379 641.525 811.382 636.895 822.15 631.94Z" fill="#F8F8F9"/>
<path d="M469.824 429.096C479.928 433.057 490.371 436.504 500.243 441L500 483.54C489.89 479.525 479.812 475.335 469.544 471.739L469.5 444.985C469.496 439.776 469.142 434.26 469.824 429.096Z" fill="#F8F8F9"/>
<path d="M867.849 612.504L868.359 612.706C869.637 615.337 868.655 645.44 868.615 650.875C857.352 655.292 846.14 659.833 834.978 664.5L834.52 664.078C833.194 657.33 834.158 635.083 834.207 626.921C845.486 622.27 856.602 617.232 867.849 612.504Z" fill="#F8F8F9"/>
<path d="M822.483 426.009L822.903 426.418C823.625 430.971 823.172 436.095 823.157 440.716C823.112 449.351 823.126 457.985 823.198 466.62C812.31 471.243 801.393 476.405 790.239 480.334C788.722 477.559 789.564 445.569 789.573 439.821L822.483 426.009Z" fill="#F8F8F9"/>
<path d="M868.428 407.628C869.847 411.891 868.846 440.728 868.823 447.511C857.56 452.082 846.498 457.189 835.123 461.472L834.663 461.075C833.916 456.785 834.367 451.785 834.361 447.401L834.345 421.209C845.67 416.593 857.031 412.066 868.428 407.628Z" fill="#F8F8F9"/>
<path d="M428.489 467.16C438.547 471.075 448.465 475.325 458.557 479.166L458.482 541.411C448.431 537.629 438.476 533.47 428.516 529.451L428.489 467.16Z" fill="#F8F8F9"/>
<path d="M469.533 483.585C479.788 487.068 489.99 491.797 499.957 496.044L500.169 558.35L469.514 545.672L469.533 483.585Z" fill="#F8F8F9"/>
<path d="M777.205 849.462L777.509 849.538C779.095 851.571 778.049 873.317 778.014 877.395C767.464 882.762 756.185 886.838 745.194 891.225L690.438 913.001C690.408 912.985 690.371 912.978 690.347 912.954C688.739 911.235 689.516 888.785 689.518 884.867L777.205 849.462Z" fill="#F8F8F9"/>
<path d="M822.646 478.982L823.313 479.553C823.819 489.16 823.372 498.923 823.361 508.547C823.281 528.76 823.326 548.973 823.497 569.185C812.606 574.007 801.644 578.662 790.611 583.151L790.092 582.941C788.689 580.037 789.544 502.218 789.545 492.908C800.612 488.319 811.718 483.902 822.646 478.982Z" fill="#F8F8F9"/>
<path d="M822.451 682.039L822.651 682.233C824.06 686.189 823.063 761.996 823.057 773.029C812.18 777.722 801.328 782.566 790.182 786.589C788.665 784.503 789.446 704.198 789.448 696.193C800.399 691.358 811.4 686.64 822.451 682.039Z" fill="#F8F8F9"/>
<path d="M868.137 460.006L868.502 460.14C869.628 463.55 868.777 471.817 868.769 475.646L868.857 525.026C868.883 532.775 867.912 542.146 869.547 549.666C858.458 554.314 847.427 559.099 836.456 564.02L834.923 564.254C833.641 561.996 834.498 482.145 834.507 473.912C845.894 469.928 857.037 464.741 868.137 460.006Z" fill="#F8F8F9"/>
<path d="M868.448 663.039C869.341 664.938 868.616 744.605 868.767 754.208C857.432 758.833 846.14 763.56 834.891 768.389L834.544 768.113C833.183 764.444 834.097 687.812 834.213 677.268C845.504 672.235 856.916 667.492 868.448 663.039Z" fill="#F8F8F9"/>
<path d="M327.238 690.93C330.688 691.019 390.189 715.153 398.032 718.512C375.497 726.86 353.227 736.36 331.015 745.546C328.137 745.623 267.287 721.102 260.195 718.009C282.606 709.14 304.954 700.113 327.238 690.93Z" fill="#F8F8F9"/>
<path d="M183.547 552.964C187.156 553.015 248.223 576.956 255.385 580.417C247.908 584.001 239.785 586.791 232.082 589.888L185.632 608.559C184.621 608.84 184.085 608.96 183.03 608.733C177.078 607.453 168.039 602.766 162.033 600.305C146.108 593.715 130.114 587.296 114.052 581.048C136.849 571.006 160.427 562.284 183.547 552.964Z" fill="#F8F8F9"/>
<path d="M624.913 863.481C626.226 868.863 625.087 888.228 625.001 895.032C619.529 897.62 613.592 899.615 607.95 901.824L570.9 916.224C551.695 923.929 532.444 931.519 513.147 938.994C503.339 942.845 493.613 947.006 483.675 950.506C482.546 943.981 483.544 927.09 483.593 919.568C497.977 913.143 512.715 907.53 527.356 901.726C541.483 896.128 555.507 890.267 569.676 884.775C588.077 877.642 606.624 870.909 624.913 863.481Z" fill="#F8F8F9"/>
<path d="M55.8903 714.422C83.6148 724.448 111.234 734.756 138.748 745.346C172.922 757.972 207.015 770.812 241.027 783.866L240.992 815.473L55.7253 746.221C55.486 735.644 55.7962 725.004 55.8903 714.422Z" fill="#F8F8F9"/>
<path d="M635.595 469.305C640.047 472.745 649.508 481.962 653.668 483.922C659.387 486.617 673.102 478.723 679.008 476.343L678.754 619.875L678.687 627.447C664.434 622.231 650.333 616.561 635.988 611.605C635.895 564.191 635.23 516.709 635.595 469.305Z" fill="#F8F8F9"/>
<path d="M188.494 807.639C205.93 814.273 224.046 820.174 241.111 827.652C241.304 835.879 239.582 855.334 242.42 861.867C246.479 865.347 294.565 880.97 303.575 884.191C313.193 887.629 322.679 891.401 332.266 894.919C342.685 892.081 355.883 884.91 365.94 880.317C384.879 886.821 403.591 894.069 422.416 900.903C439.141 906.974 456.344 912.62 472.613 919.816L472.628 936.813L472.621 951.072C439.163 939.313 406.032 926.27 372.805 913.859L188.496 846.122L188.494 807.639Z" fill="#F8F8F9"/>
<path d="M566.082 800.161C572.213 801.561 578.375 804.559 584.298 806.733C597.741 811.638 611.146 816.646 624.513 821.757L624.489 851.925C591.948 864.025 559.603 876.627 527.454 889.732C510.977 896.318 494.582 903.845 477.769 909.472L432.142 892.527L381.437 873.631C393.137 866.995 406.053 861.964 418.362 856.571C445.25 863.472 471.224 874.065 497.915 881.739C507.744 878.39 517.379 873.756 527.024 869.866C538.387 865.283 550.156 861.196 561.361 856.285C562.848 855.633 564.282 854.921 565.497 853.83C566.5 848.172 565.781 841.667 565.795 835.876L566.082 800.161Z" fill="#F8F8F9"/>
<path d="M635.69 623.126C650.339 627.617 664.68 634.296 678.983 639.81L678.577 829.441C672.578 827.608 666.685 824.978 660.821 822.728C652.536 819.619 644.234 816.554 635.915 813.535L635.69 623.126Z" fill="#F8F8F9"/>
<path d="M409.036 726.075C410.457 727.92 409.68 834.972 409.597 847.575C398.35 853.348 386.605 858.356 375.129 863.662C362.728 869.395 350.33 875.544 337.624 880.56L336.765 880.29C335.659 876.551 336.513 854.666 336.509 849.268L336.498 754.927C344.417 752.319 352.192 748.826 359.931 745.715C376.244 739.028 392.612 732.482 409.036 726.075Z" fill="#F8F8F9"/>
<path d="M252.185 726.831C276.757 735.903 301.065 746.193 325.379 755.961L325.345 880.313C301.292 871.032 276.688 863.209 252.519 854.239L252.185 726.831Z" fill="#F8F8F9"/>
<path d="M967.43 724.471L967.994 724.929C969.156 733.423 968.14 748.958 968.078 758.068L809.898 823.933C782.505 835.344 755.026 846.544 727.46 857.533C715.023 862.538 702.723 867.944 690.164 872.635C688.519 870.031 689.498 845.524 689.511 840.727C702.148 835.951 714.581 830.436 727.048 825.231L796.072 796.455C853.448 773.072 910.567 749.078 967.43 724.471Z" fill="#F8F8F9"/>
<path d="M262.085 589.969L262.653 590.152C263.772 593.878 262.854 614.649 262.852 620.266L262.943 705.027C257.863 706.945 245.328 710.666 241.833 714.484C239.705 716.808 240.545 724.011 240.594 727.135C223.495 733.922 206.953 742.395 189.621 748.551L189.228 748.444C188.437 747.509 188.56 747.199 188.509 746.022C187.945 732.943 188.572 719.501 188.555 706.386L188.49 619.235C198.267 615.898 207.814 611.769 217.379 607.871C232.218 601.745 247.12 595.778 262.085 589.969Z" fill="#F8F8F9"/>
<path d="M554.423 660.536L554.626 660.733C555.946 664.201 555.003 694.912 555.009 701.189L554.876 846.735C538.232 853.725 521.389 860.298 504.639 867.032L504.002 866.434C503.25 860.983 503.898 854.782 503.901 849.227L503.968 681.354C513.633 677.452 523.176 673.25 532.829 669.32C540.02 666.393 547.42 663.893 554.423 660.536Z" fill="#F8F8F9"/>
<path d="M102.577 588.487C112.847 592.266 122.96 596.762 133.147 600.791C147.853 606.607 162.903 612.155 177.241 618.826C177.974 647.937 177.292 677.189 177.361 706.321C177.373 711.484 178.157 744.672 177.3 747.274C177.203 747.568 176.969 747.797 176.804 748.059C164.245 743.234 151.81 738.086 139.232 733.31C126.82 728.597 114.249 724.239 102.008 719.092C103.61 675.612 101.171 631.99 102.577 588.487Z" fill="#F8F8F9"/>
<path d="M187.919 506.558C199.708 510.525 211.354 515.875 222.904 520.541C242.581 528.462 262.296 536.283 282.051 544.004L482.318 623.002C504.931 631.921 527.348 641.505 550.065 650.133C545.178 653.041 539.401 654.937 534.13 657.06C521.455 662.391 508.737 667.62 495.978 672.747C471.437 662.207 445.966 653.311 420.982 643.827L348.501 615.862C323.665 606.503 298.879 597.013 274.143 587.39C274.01 584.102 274.834 579.312 273.135 576.372C272.348 575.01 270.606 574.35 269.246 573.721C260.603 569.727 251.313 566.764 242.434 563.301C224.343 556.132 206.212 549.066 188.041 542.104L187.919 506.558Z" fill="#F8F8F9"/>
<path d="M370.05 186.386C378.188 190.993 399.216 211.188 406.899 218.128L476.857 281.162L587.199 379.293C609.249 398.825 631.631 418.252 653.064 438.444C652.984 449.082 652.972 459.72 653.027 470.358C636.937 455.595 619.746 441.925 603.443 427.371L393.579 241.009C386.325 234.667 378.777 226.806 370.694 221.596C368.747 221.274 365.796 223.561 364.187 224.681C358.703 228.499 353.506 232.941 348.235 237.059C337.342 245.449 326.494 253.897 315.691 262.404C283.756 286.705 251.985 311.219 220.38 335.948C205.285 348.107 189.911 359.903 174.259 371.336C165.534 377.786 156.865 384.758 147.27 389.874C146.762 380.437 147.076 370.854 147.06 361.399C153.405 355.359 160.822 350.214 167.733 344.825L209.965 312L370.05 186.386Z" fill="#F8F8F9"/>
<path d="M273.785 599.337C294.471 607.573 315.437 614.982 336.221 622.949C388.34 643.323 440.575 663.392 492.927 683.157L493.055 868.545C487.603 866.623 482.002 865.002 476.489 863.254C457.915 857.167 439.307 851.185 420.666 845.307L420.797 757.405C420.778 748.079 422.007 722.563 419.605 714.862C418.444 713.65 416.222 712.92 414.666 712.299C396.091 704.884 377.211 698.093 358.558 690.848C348.689 687.016 338.526 681.898 328.354 679.092C322.095 680.599 315.839 683.596 309.847 685.962L273.957 700.399L273.785 599.337Z" fill="#F8F8F9"/>
<path d="M931.876 536.564C932.056 536.796 932.312 536.985 932.417 537.259C933.061 538.942 932.443 566.576 932.441 571.316L932.38 727.645L899.746 741.155C893.177 743.876 886.615 746.847 879.863 749.077C879.425 730.816 880.757 605.31 878.913 601.142C878.375 599.929 876.96 598.7 875.646 598.458C873.591 598.08 871.078 598.94 869.168 599.629C857.458 603.851 845.999 609.567 834.524 614.455C824.096 618.897 785.549 633.638 779.316 638.897C778.485 640.726 778.408 642.902 778.316 644.892C777.722 657.663 778.396 670.699 778.411 683.499L778.443 763.448C778.492 772.841 778.414 782.232 778.208 791.623C763.911 798.279 749.124 804.027 734.548 810.049C719.641 816.208 704.82 822.705 689.74 828.423C689.187 808.628 689.781 788.652 689.831 768.843L689.866 639.351C709.429 631.548 728.657 622.473 748.019 614.151L860.864 565.908C884.387 555.829 907.848 545.393 931.876 536.564Z" fill="#F8F8F9"/>
<path d="M931.664 331.929L932.156 332.023C933.314 334.48 932.515 504.96 932.5 524.011C925.702 526.362 919.092 529.383 912.427 532.094L879.702 545.178C879.075 526.138 880.936 400.658 878.974 396.539C878.369 395.27 876.809 393.895 875.397 393.745C873.489 393.542 870.841 394.475 869.037 395.12C860.265 398.254 783.208 429.161 780.152 432.164C778.743 433.549 778.624 435.209 778.484 437.085C778.181 441.168 778.577 445.442 778.592 449.545L778.544 474.803L778.502 562.75L778.523 588.535C761.404 596.062 744.245 603.498 727.046 610.842C714.764 616.221 702.436 622.37 689.841 626.928L689.786 431.928C705.992 425.508 721.991 418.505 738.068 411.765L815.346 379.717L902.236 343.892C912.007 339.818 922 336.246 931.664 331.929Z" fill="#F8F8F9"/>
<path d="M640.378 78.5189C643.334 78.7688 646.873 82.5414 649.204 84.4669C682.114 111.97 714.845 139.685 747.397 167.612L823.665 231.882L895.114 291.719C906.43 301.235 918.158 310.438 929.045 320.436C917.399 326.215 905.168 330.71 893.128 335.581L839.138 357.684L668.123 428.751C666.12 429.656 663.986 430.341 661.921 431.096L489.38 277.471C453.662 245.519 418.681 212.483 382.172 181.455C415.676 166.599 450.338 153.935 484.377 140.332C536.283 119.587 588.091 98.2712 640.378 78.5189Z" fill="#F8F8F9"/>
<path d="M369.495 234.475C390.973 253.011 411.824 272.289 433.11 291.046L624.629 460.45L624.792 544.686C624.893 565.442 625.206 586.25 624.657 607C609.238 599.802 592.411 594.123 576.465 588.169C554.806 580.042 533.211 571.747 511.681 563.284L511.572 444.214C511.563 441.706 511.965 434.886 509.986 433.213C507.361 430.994 436.678 404.005 427.358 400.955C425.296 400.281 423.42 399.869 421.235 400.005C420.013 400.644 418.888 401.248 418.149 402.489C417.321 403.88 417.443 406.593 417.407 408.204C417.128 420.595 416.812 533.604 418.051 536.011C418.703 537.278 420.283 537.979 421.517 538.576C427.139 541.294 433.195 543.42 438.996 545.754L469.247 557.993C511.22 574.951 553.349 591.513 595.633 607.679L624.645 618.545C624.62 682.269 625.774 746.098 624.614 809.803C605.067 802.696 585.581 795.427 566.155 787.998C565.51 743.982 565.937 699.884 565.984 655.864C566.998 654.789 568.145 653.587 568.724 652.203C569.321 650.778 569.511 649.263 568.773 647.836C567.858 646.067 565.858 644.954 564.117 644.145C556.677 640.684 548.761 638.031 541.175 634.885C515.601 624.28 489.822 614.223 464.134 603.892C372.272 566.948 279.521 532.163 188.037 494.288L187.639 375.691C212.217 355.454 237.984 336.324 263.237 316.927L369.495 234.475Z" fill="#F8F8F9"/>
<path d="M296.632 351.925C298.079 351.955 299.555 352.32 300.919 352.793C319.761 359.327 338.336 367.123 356.949 374.305C366.361 377.937 377.321 380.672 385.943 385.794C386.713 394.343 386.072 403.432 386.063 412.047L386.015 464.294L386.073 501.482C386.092 508.064 386.788 515.577 385.649 522.048C384.638 523.65 383.368 524.394 381.793 525.402C380.718 525.433 379.755 525.43 378.713 525.146C375.261 524.206 371.727 522.54 368.36 521.278L344.662 512.343L314.256 500.834C307.349 498.213 299.852 495.948 293.527 492.094C292.728 490.301 292.768 488.019 292.739 486.073C292.251 453.588 292.695 421.04 292.672 388.548C292.668 383.336 291.762 359.858 292.727 356.171C293.315 353.926 294.82 353.134 296.632 351.925Z" fill="black"/>
<path d="M303.9 365.951C313.591 368.663 323.302 373.017 332.557 376.979C332.301 391.12 332.525 405.29 332.42 419.437C322.887 416.405 313.431 412.346 304.005 408.904L303.9 365.951Z" fill="#F8F8F9"/>
<path d="M343.681 381.065C354.142 384.248 364.63 389.083 374.872 393.024L374.906 436.297C364.932 431.629 354.058 428.351 343.813 424.233C343.261 409.976 343.321 395.327 343.681 381.065Z" fill="#F8F8F9"/>
<path d="M303.708 420.631C313.375 424.105 322.891 428.188 332.495 431.853L332.484 495.732C322.941 492.32 313.449 488.768 304.01 485.077C303.096 477.509 303.623 469.426 303.638 461.791L303.708 420.631Z" fill="#F8F8F9"/>
<path d="M343.544 436.293C354.063 439.594 364.332 444.354 374.722 448.122C374.937 469.04 374.932 489.958 374.709 510.876C371.219 511.163 348.461 501.359 343.53 499.433L343.544 436.293Z" fill="#F8F8F9"/>
</svg>
