<svg width="1024" height="1024" viewBox="0 0 1024 1024" fill="none" xmlns="http://www.w3.org/2000/svg">
<g clip-path="url(#clip0_1_111)">
<path d="M0 0H1024V1024H0V0Z" fill="#F8F8F9"/>
<path d="M956.618 367.054C962.283 366.811 996.96 366.21 1000.24 367.326C1001.93 367.904 1003.82 369.184 1004.45 370.945C1004.8 371.942 1004.73 372.96 1004.08 373.818C1001.25 377.565 987.659 376.069 983.089 376.337C982.753 391.493 983.01 406.712 982.981 421.875C983.009 425.484 983.932 435.067 982.565 438.02C981.858 439.547 980.665 440.791 978.956 441.126C977.727 441.367 976.422 441.083 975.45 440.284C974.574 439.563 973.881 438.398 973.662 437.289C972.659 432.21 973.403 425.332 973.355 420.069L973.135 376.088C968.851 376.038 958.055 377.343 955.008 374.177C954.496 373.645 954.095 372.917 954.096 372.172C954.1 370.131 955.334 368.517 956.618 367.054Z" fill="#020202"/>
<path d="M22.7538 367.096C28.0204 366.638 66.2106 366.213 68.8964 367.458C70.0158 367.977 70.9784 368.691 71.2919 369.953C71.6854 371.538 71.253 373.386 70.1735 374.606C67.5158 377.611 54.4948 376.058 50.0705 376.081C49.8123 391.627 50.0691 407.218 50.0812 422.769C50.0338 427.261 51.5553 437.38 48.5462 440.812C47.6435 441.842 46.6919 442.374 45.3025 442.43C43.9115 442.486 43.0254 442.029 42.1092 441.015C41.0107 439.798 40.6304 437.757 40.4636 436.189C39.8718 430.626 40.5468 424.624 40.5311 419.006L40.4396 376.382C35.0782 376.247 26.2394 377.618 21.702 374.518C20.9526 374.006 20.2541 373.119 20.2023 372.187C20.0876 370.122 21.3606 368.46 22.7538 367.096Z" fill="#020202"/>
<path d="M45.1503 607.39C46.5955 607.663 47.9171 607.916 49.0809 608.895C49.981 609.652 50.2788 610.781 50.4054 611.898C51.4281 620.923 50.5835 630.816 50.573 639.93L50.6534 696.503C55.8498 696.584 68.0856 694.773 72.1489 697.832C73.2704 698.676 73.9286 699.598 74.0696 701.025C74.1918 702.263 73.8635 703.444 72.9687 704.336C69.532 707.761 56.7317 706.093 51.75 706.036C46.9826 706.009 26.5261 706.996 23.8145 704.911C22.9949 704.281 22.5149 703.474 22.4381 702.417C22.3291 700.917 22.7131 699.281 23.8074 698.192C27.0818 694.934 36.725 696.415 41.0362 696.472C41.1159 686.549 40.1794 613.815 41.649 610.143C42.2479 608.646 43.7951 608.074 45.1503 607.39Z" fill="#020202"/>
<path d="M977.4 607.521C978.832 607.786 980.467 608.133 981.509 609.214C982.368 610.104 982.573 611.071 982.698 612.275C983.64 621.335 982.869 631.111 982.857 640.245L982.825 696.481C986.868 696.522 997.292 695.259 1000.46 697.534C1001.79 698.483 1002.81 700.142 1002.73 701.832C1002.68 702.7 1002.33 703.351 1001.76 703.964C998.424 707.571 980.325 706.067 975.25 706.02C970.225 705.977 955.227 707.546 951.589 704.728C950.484 703.872 949.847 702.935 949.734 701.512C949.631 700.22 950.024 699.021 950.994 698.138C954.382 695.051 967.95 696.566 973.033 696.599C973.04 685.224 972.067 615.163 973.622 610.822C974.319 608.877 975.633 608.244 977.4 607.521Z" fill="#020202"/>
<path d="M638.477 17.945C639.831 17.997 641.661 18.214 642.748 19.101C643.675 19.8582 644.042 20.8686 644.236 22.0008C644.917 25.984 644.504 30.4388 644.502 34.4891L644.495 57.5562C650.874 67.8342 658.136 77.6552 665.09 87.5548C674.7 101.234 684.248 115.003 694.096 128.511C698.619 134.716 703.497 140.652 707.883 146.959L881.746 147.184L945.686 146.991C956.128 146.978 966.72 146.598 977.148 147.017C978.937 147.089 980.336 147.244 981.685 148.541C982.993 149.797 982.85 151.838 982.939 153.555C983.319 160.883 983.048 168.341 983.045 175.687L983.03 216.543L983.085 343.495C988.984 343.464 999.524 342.047 1003.92 346.286C1004.36 347.501 1004.53 348.178 1004.04 349.431C1003.42 350.99 1002.19 352.365 1000.57 352.843C999.745 353.087 963.211 353.333 960.27 353.111C958.623 352.986 956.841 352.69 955.508 351.636C954.492 350.833 954.029 349.762 953.968 348.487C953.908 347.247 954.233 346.048 955.123 345.146C958.226 342.003 968.767 343.479 973.24 343.52L973.201 156.518L714.022 156.22C729.986 179.414 746.827 201.988 763.074 224.984L909.879 431.077L953.115 491.125C958.866 498.968 972.302 514.577 975.448 522.166C976.034 523.577 976.39 524.859 975.806 526.338C974.161 527.629 972.489 528.089 970.426 528.379C964.933 529.152 958.683 528.563 953.114 528.513L922.338 528.389L922.308 903.099L973.081 903.062L973.086 729.04C966.978 728.942 959.802 730.044 953.869 728.688C951.823 728.221 950.686 727.531 949.575 725.764C949.358 724.526 949.116 723.383 949.705 722.185C950.385 720.802 951.785 720.093 953.221 719.769C958.115 718.662 973.509 719.648 979.31 719.638C985.098 719.627 991.207 718.941 996.955 719.459C998.519 719.6 1000.52 719.918 1001.78 720.942C1002.82 721.781 1003.4 722.7 1003.46 724.062C1003.5 725.284 1003.1 726.398 1002.21 727.251C998.848 730.485 987.948 729.086 983.276 729.023L983.004 903.027C989.562 902.994 1015.52 901.514 1020.08 904.66C1021.13 905.385 1021.79 906.228 1021.96 907.518C1022.14 908.827 1021.4 910.084 1020.64 911.055C1019.2 911.891 1018.05 912.057 1016.39 912.154C1006.96 912.707 997.182 912.166 987.723 912.173C965.905 912.19 944.073 912.069 922.256 912.353C921.932 921.746 924.058 958.857 920.56 964.624C914.575 966.393 884.787 965.32 876.235 965.333L754.924 965.345L228.75 965.397L149.989 965.195L122.881 965.357C117.719 965.389 112.411 965.688 107.272 965.227C105.77 965.092 104.549 964.7 103.42 963.644C102.609 962.886 102.363 962.036 102.208 960.977C101.447 955.772 101.944 949.97 101.947 944.685L101.983 912.539L37.3935 912.521C28.7695 912.527 11.3556 913.641 4.0622 911.709C2.99961 910.778 2.23945 910.038 2.05094 908.526C1.882 907.171 2.353 905.769 3.23341 904.737C3.87921 903.981 4.91873 903.315 5.91132 903.145C9.35343 902.554 13.535 903.019 17.0635 903.016L41.0154 903.01L41.0797 729.12C36.9031 728.977 32.7107 729.343 28.5361 729.176C26.4353 729.092 23.393 728.654 22.0615 726.808C21.3327 725.797 21.2668 724.447 21.5796 723.276C21.9705 721.811 23.319 720.826 24.671 720.306C27.5518 719.197 61.9543 719.213 66.7938 719.577C68.7759 719.726 70.8378 720.008 72.6546 720.86C74.1306 721.552 74.6313 722.233 75.1206 723.752C74.812 725.322 73.9611 726.489 72.8242 727.589C70.2986 730.033 54.8643 729.08 50.5602 729.08L50.5957 903.038L101.77 903.059L101.832 528.09C85.4694 527.739 68.8836 528.881 52.5652 527.985C49.5016 527.817 45.8904 527.368 43.7518 524.955C43.7428 521.719 46.1684 518.03 47.9144 515.368C54.2746 505.672 61.4758 496.428 68.2423 487.009L111.104 427.081L305.111 156.635L50.2832 156.505C49.7698 178.494 50.1141 200.584 50.103 222.582L50.1008 343.544C55.4079 343.718 64.0124 342.183 68.7702 344.38C69.9057 344.905 71.3415 346.523 71.6377 347.802C71.8207 348.593 71.8571 349.218 71.4332 349.916C70.5295 351.406 68.8093 352.052 67.1891 352.45C59.9026 354.237 51.0259 352.795 43.4966 352.862C38.0793 352.909 32.3663 353.612 26.9832 353.079C25.4653 352.929 23.9076 352.614 22.6074 351.775C21.444 351.024 20.712 349.934 20.5223 348.546C20.3535 347.312 20.65 346.096 21.5659 345.213C24.9111 341.99 35.8677 343.356 40.5412 343.404L40.5342 218.973C40.5128 198.01 39.7069 176.703 40.5685 155.776C40.6429 153.969 40.6046 150.05 41.8795 148.793C43.3225 147.371 45.4937 147.078 47.4379 146.992C55.8911 146.619 64.6507 147.129 73.1474 147.125L131.985 147.112L311.316 147.064C323.02 133.225 333.178 117.593 343.551 102.714C350.612 92.5858 358.108 82.777 365.174 72.6674C365.217 66.7771 363.83 54.4785 366.092 49.601C366.851 47.965 368.3 46.2535 370.156 45.8678C371.287 45.6329 372.26 46.0215 373.089 46.7919C376.422 49.8883 375.146 66.8467 375.169 72.0118C392.42 97.4281 410.087 123.094 428.926 147.361C440.36 147.023 451.834 147.237 463.274 147.263C463.235 139.034 462.078 98.8893 463.539 94.1641C463.815 93.2718 464.092 92.8586 464.964 92.4726C466.952 91.5922 469.878 91.413 472.073 91.333C485.152 90.8563 498.443 91.374 511.541 91.3778C524.709 91.3817 538.117 90.8631 551.261 91.4644C553.865 91.5836 556.35 91.939 558.834 92.7603L558.934 93.6002L559.299 93.0241C561.205 97.0144 560.306 139.453 560.34 146.946L569.36 146.948C585.223 126.231 599.801 104.204 614.702 82.7713C621.088 73.587 626.89 63.3787 634.395 55.0969C634.431 47.229 633.154 28.913 634.738 22.1889C635.281 19.8818 636.542 19.0398 638.477 17.945Z" fill="#020202"/>
<path d="M434.712 156.468C444.191 156.405 453.669 156.403 463.148 156.464C463.197 169.529 463.14 182.594 462.975 195.659C460.642 193.578 458.635 190.126 456.725 187.582C449.12 177.4 441.783 167.029 434.712 156.468Z" fill="#F8F8F9"/>
<path d="M845.904 912.473C868.02 911.757 890.402 912.303 912.539 912.442L912.498 955.298C890.375 955.919 868.062 955.331 845.919 955.311L845.904 912.473Z" fill="#F8F8F9"/>
<path d="M656.014 907.001L835.934 906.964C835.998 923.109 835.965 939.254 835.835 955.399L656.018 955.395L656.014 907.001Z" fill="#F8F8F9"/>
<path d="M472.908 100.981C498.777 100.839 524.646 100.963 550.513 101.353C550.498 111.161 551.757 168.913 549.422 174.324C546.854 180.273 541.972 185.887 538.204 191.141L520.35 216.206C513.288 226.239 506.426 236.678 498.545 246.081C489.818 234.16 480.861 222.056 473.029 209.535C472.203 173.418 472.934 137.117 472.908 100.981Z" fill="#F8F8F9"/>
<path d="M111.704 912.061L400.298 911.989L546.722 911.973C573.669 911.977 600.66 911.676 627.601 912.107C628.379 926.455 627.93 940.994 627.907 955.367L111.864 955.299L111.704 912.061Z" fill="#F8F8F9"/>
<path d="M638.136 67.303C650.63 83.2041 661.84 100.491 673.533 117.011L740.009 210.75C812.854 313.933 886.486 416.549 960.904 518.599C947.055 518.778 933.206 518.836 919.357 518.773C904.458 498.618 889.807 478.283 875.406 457.768L816.498 375.307C803.51 358.276 791.384 340.424 778.931 322.992L711.198 227.832C696.319 206.441 681.297 185.152 666.131 163.963C659.069 153.954 652.414 143.369 644.885 133.729C643.809 132.351 642.534 130.902 641.052 129.946C640.073 129.314 639.059 129.03 637.912 129.267C636.039 129.653 635.149 130.693 634.02 132.111C625.487 142.818 617.939 154.659 610.043 165.858L572.731 218.263C562.75 232.368 552.667 246.398 542.481 260.355C536.824 268.152 530.931 275.807 525.664 283.877C518.32 274.565 511.562 264.516 505.199 254.506C514.745 242.596 522.983 229.463 531.985 217.119C553.394 187.621 574.536 157.933 595.411 128.056C609.597 107.759 623.471 87.2609 638.136 67.303Z" fill="#F8F8F9"/>
<path d="M370.037 83.3961C373.681 85.836 427.778 164.05 433.825 172.597L558.277 347.905L681.278 518.465L637.61 518.496C633.112 511.246 627.894 504.314 622.979 497.335C613.35 483.612 603.64 469.948 593.849 456.341L505.432 331.991L404.716 189.927L385.504 163.247C381.758 157.952 378.233 152.356 374.268 147.231C373.215 145.87 371.526 145.388 369.968 144.823C367.664 146.013 366.18 148.027 364.637 150.042C354.917 162.736 346.001 176.136 336.639 189.102L275.835 273.251L99.9076 518.482L58.08 518.458L264.253 230.817L334.609 132.59C346.314 116.245 357.257 98.9012 370.037 83.3961Z" fill="#F8F8F9"/>
<path d="M676.315 628.659L813.766 628.725L813.603 896.433C812.941 896.993 812.128 897.019 811.276 897.052C795.612 897.666 779.667 897.072 763.966 897.069L676.294 897.162C675.569 854.159 676.055 811.041 676.046 768.026C676.038 721.591 675.591 675.084 676.315 628.659Z" fill="#F8F8F9"/>
<path d="M791.49 756.128C794.504 756.249 797.144 756.869 799.798 758.36C800.233 758.601 800.654 758.864 801.062 759.148C801.47 759.432 801.863 759.736 802.24 760.059C802.618 760.382 802.979 760.724 803.322 761.083C803.665 761.442 803.989 761.818 804.295 762.21C804.6 762.603 804.885 763.009 805.15 763.43C805.415 763.851 805.658 764.284 805.879 764.729C806.1 765.174 806.299 765.629 806.474 766.094C806.649 766.559 806.801 767.032 806.929 767.512C807.06 768.02 807.164 768.534 807.241 769.053C807.319 769.572 807.37 770.093 807.395 770.617C807.419 771.142 807.416 771.666 807.387 772.189C807.358 772.713 807.301 773.234 807.218 773.752C807.135 774.271 807.026 774.783 806.891 775.29C806.756 775.797 806.595 776.295 806.408 776.786C806.221 777.277 806.01 777.756 805.774 778.225C805.539 778.694 805.28 779.149 804.997 779.591C802.168 784.084 798.224 785.928 793.249 787.036C789.716 787.021 787.082 786.663 783.999 784.799C783.549 784.525 783.114 784.229 782.694 783.911C782.274 783.592 781.872 783.253 781.487 782.893C781.102 782.534 780.737 782.155 780.391 781.757C780.045 781.36 779.72 780.946 779.416 780.515C779.113 780.084 778.832 779.639 778.575 779.18C778.317 778.72 778.083 778.248 777.874 777.765C777.665 777.282 777.481 776.789 777.322 776.286C777.163 775.783 777.031 775.274 776.925 774.758C776.817 774.239 776.736 773.715 776.683 773.187C776.629 772.66 776.603 772.131 776.605 771.6C776.607 771.069 776.637 770.54 776.694 770.013C776.751 769.486 776.835 768.963 776.947 768.445C777.059 767.926 777.197 767.415 777.362 766.911C777.527 766.407 777.719 765.913 777.936 765.429C778.153 764.944 778.394 764.473 778.66 764.014C778.926 763.555 779.215 763.112 779.528 762.683C782.496 758.594 786.645 756.904 791.49 756.128Z" fill="#020202"/>
<path d="M790.01 766.042C790.812 766.015 791.617 765.989 792.42 766.014C794.183 766.068 795.691 766.798 796.821 768.172C797.815 769.381 798.172 770.912 797.886 772.447C797.435 774.86 795.982 776.166 794.078 777.548C793.06 777.599 792.003 777.673 790.986 777.583C789.497 777.45 787.838 776.44 786.944 775.244C786.085 774.095 785.827 772.692 786.046 771.288C786.433 768.805 788.108 767.468 790.01 766.042Z" fill="#F8F8F9"/>
<path d="M637.629 528.17L778.724 528.292L858.743 528.331C876.656 528.323 894.599 528.051 912.508 528.412C913.105 577.417 912.703 626.467 912.667 675.477L912.511 903.014C892.191 903.001 871.809 903.462 851.498 903.087C843.062 902.931 847.839 902.294 842.99 898.132C840.68 896.15 827.121 897.1 823.335 897.125C822.865 869.717 823.476 842.204 823.485 814.783L823.413 654.75C823.416 649.574 824.661 623.75 822.529 620.714C821.876 619.784 818.541 619.273 817.435 619.095C810.936 618.051 803.647 618.67 797.06 618.682L759.827 618.778L706.541 618.805C696.143 618.749 685.573 618.244 675.194 618.683C672.685 618.789 669.646 618.943 667.579 620.475C665.214 628.827 666.458 642.885 666.433 651.778L666.309 695.539L666.39 897.077C662.155 897.018 652.252 895.865 649.098 898.519C647.498 899.865 646.832 902.664 646.536 904.63C645.714 910.075 646.25 916.166 646.249 921.701L646.254 955.335L638.265 955.277L637.629 528.17Z" fill="#F8F8F9"/>
<path d="M638.44 142.839C642.113 145.5 673.284 191.382 678.615 198.98L741.489 288.002L868.894 466.195C881.374 483.681 894.263 500.912 906.555 518.524L800.25 518.539C764.94 518.253 729.63 518.246 694.319 518.518C686.258 508.894 679.218 498.472 671.894 488.289L640.1 444.289L531.659 292.893C566.583 242.426 603.379 193.223 638.44 142.839Z" fill="#F8F8F9"/>
<path d="M603.761 266.595L658.531 266.674C666.779 266.668 676.117 265.72 684.223 266.928C685.948 267.185 687.196 267.764 688.182 269.304C688.994 270.572 689.044 272.59 689.093 274.043C689.411 283.513 688.95 293.101 688.956 302.584C688.96 310.036 689.989 349.663 688.69 353.671C688.073 355.576 686.872 356.175 685.223 357.049C666.704 356.914 648.186 356.893 629.667 356.986C621.436 357.007 612.447 357.853 604.294 356.996C602.738 356.832 601.572 356.463 600.648 355.08C599.755 353.743 599.692 352.218 599.614 350.661C599.24 343.144 599.135 273.3 599.858 270.738C600.476 268.544 601.958 267.732 603.761 266.595Z" fill="#020202"/>
<path d="M609.653 276.205C619.593 276.12 629.532 276.155 639.471 276.31C639.494 286.449 639.671 296.616 639.387 306.751L609.705 306.722L609.653 276.205Z" fill="#F8F8F9"/>
<path d="M609.621 316.733C619.565 316.582 629.538 316.722 639.484 316.724L639.383 347.25C629.475 347.308 619.567 347.294 609.66 347.207C609.565 337.049 609.552 326.891 609.621 316.733Z" fill="#F8F8F9"/>
<path d="M649.277 276.332C659.267 276.223 669.257 276.24 679.246 276.385L679.3 306.865L649.362 306.908L649.277 276.332Z" fill="#F8F8F9"/>
<path d="M650.233 316.723C659.962 316.817 669.699 316.718 679.429 316.699C679.438 321.042 680.167 345.417 678.851 347.417L649.32 347.427C649.29 338.097 648.456 327.959 649.328 318.739C649.435 317.608 649.303 317.453 650.233 316.723Z" fill="#F8F8F9"/>
<path d="M370.243 159.841C374.207 164.163 377.587 169.386 381.042 174.129C388.037 183.733 394.829 193.454 401.696 203.147C421.921 231.291 441.96 259.568 461.811 287.977L585.357 462.23C598.757 480.829 612.031 499.517 625.179 518.294L367.75 518.129L112.859 518.284C119.56 508.306 126.755 498.607 133.72 488.809L174.143 432.318C199.509 396.545 225.098 360.931 250.91 325.478C290.755 270.496 329.562 214.102 370.243 159.841Z" fill="#F8F8F9"/>
<path d="M361.547 314.192C380.525 312.737 398.648 317.164 413.568 329.328C414.444 330.031 415.302 330.756 416.143 331.502C416.983 332.248 417.804 333.014 418.606 333.801C419.408 334.588 420.19 335.394 420.952 336.22C421.714 337.046 422.455 337.89 423.174 338.753C423.894 339.616 424.592 340.496 425.268 341.393C425.944 342.29 426.597 343.204 427.228 344.134C427.859 345.064 428.466 346.009 429.049 346.969C429.632 347.929 430.192 348.903 430.727 349.891C431.262 350.879 431.772 351.88 432.257 352.893C432.742 353.906 433.202 354.931 433.636 355.968C434.071 357.004 434.479 358.05 434.861 359.107C435.243 360.164 435.598 361.229 435.927 362.303C436.256 363.378 436.559 364.46 436.834 365.549C437.109 366.638 437.356 367.734 437.577 368.835C437.798 369.937 437.991 371.044 438.157 372.155C438.322 373.266 438.46 374.381 438.57 375.499C439.243 382.179 438.967 389.009 438.929 395.72L438.704 427.435C438.632 437.867 439.544 449.278 438.635 459.579C438.43 461.907 438.158 463.777 436.653 465.615C430.455 467.704 388.006 466.468 378.25 466.446L336.515 466.352C328.071 466.355 309.112 467.485 302.344 465.407C301.045 464.209 300.77 462.738 300.539 461.045C299.386 452.583 300.487 440.433 300.497 431.571L300.332 397.919C300.257 387.616 299.539 377.077 301.785 366.946C302.075 365.67 302.402 364.403 302.765 363.146C303.128 361.888 303.526 360.642 303.961 359.408C304.396 358.173 304.865 356.952 305.369 355.744C305.874 354.537 306.412 353.345 306.985 352.168C307.558 350.991 308.164 349.831 308.803 348.689C309.442 347.547 310.114 346.424 310.818 345.321C311.521 344.218 312.256 343.135 313.022 342.074C313.787 341.013 314.583 339.974 315.408 338.958C326.797 324.749 343.581 316.227 361.547 314.192Z" fill="#020202"/>
<path d="M362.495 324.192L363.648 324.267C364.95 326.428 364.137 381.768 364.141 388.865C346.586 389.122 328.999 388.9 311.441 388.897C310.762 388.833 311.194 388.922 310.226 388.37C310.11 387.897 310.006 387.54 309.941 387.069C308.291 375.124 314.192 357.199 321.414 347.772C332.437 333.383 344.663 326.511 362.495 324.192Z" fill="#F8F8F9"/>
<path d="M374.418 324.543C389.698 325.565 402.985 331.93 413.401 343.177C425.598 356.347 429.736 370.937 429.054 388.601C410.933 389.39 392.486 388.933 374.343 388.744C374.247 367.343 374.272 345.943 374.418 324.543Z" fill="#F8F8F9"/>
<path d="M310.347 398.705L364.095 398.591L364.07 435.79C364.062 442.31 364.367 449.01 363.924 455.508L363.034 456.069L310.3 456.044C310.258 436.941 309.982 417.804 310.347 398.705Z" fill="#F8F8F9"/>
<path d="M374.163 398.685L428.65 398.663C428.775 417.927 428.752 437.191 428.58 456.455L374.216 456.445C373.956 437.21 374.012 417.922 374.163 398.685Z" fill="#F8F8F9"/>
<path d="M111.779 528.044L420.635 528.09L545.431 528.303C572.89 528.235 600.349 528.304 627.807 528.511C628.206 543.556 627.972 558.663 627.984 573.714L627.843 669.548L627.804 901.973C608.598 902.659 589.182 902.053 569.948 902.053L455.951 902.051L111.948 902.188L111.779 528.044Z" fill="#F8F8F9"/>
<path d="M191.722 599.067C209.836 598.089 228.435 598.896 246.595 598.878L354.518 598.826L476.361 598.836C497.48 598.814 518.909 598.029 539.997 598.806C541.49 598.861 543.208 599.128 544.41 600.104C545.438 600.937 546.033 601.913 546.145 603.256C546.289 604.995 545.661 606.534 544.359 607.673C541.628 610.062 534.376 609.1 531 609.038L530.997 843.7C534.854 843.596 539.199 843.011 542.673 845.065C543.857 845.765 544.966 846.905 545.097 848.342C545.211 849.607 544.581 850.794 543.804 851.74C542.452 853.384 541.193 853.829 539.125 854.093L302.588 854.06L230.75 854.072C218.518 854.078 206.216 854.411 193.994 854.089C192.61 854.053 191.074 854.027 189.871 853.238C188.791 852.529 188.103 851.232 187.896 849.984C187.636 848.419 188.047 846.561 189.247 845.455C192.198 842.736 201.699 844.013 205.749 844.126C206.517 816.703 205.823 789.095 205.809 761.656L205.625 609.121C201.776 609.013 197.735 609.653 193.928 609.208C192.112 608.995 190.157 608.471 189.095 606.843C188.248 605.546 188.247 603.836 188.609 602.376C189.039 600.641 190.312 599.933 191.722 599.067Z" fill="#020202"/>
<path d="M296.346 689.976L364.204 689.986C363.99 705.743 364.172 721.514 364.166 737.272C364.164 744.839 364.537 752.611 363.963 760.141L296.285 760.058C296.158 736.697 296.179 713.336 296.346 689.976Z" fill="#F8F8F9"/>
<path d="M453.004 690.016C475.629 689.789 498.281 690.017 520.91 690.022L520.891 760.15L452.996 760.119L453.004 690.016Z" fill="#F8F8F9"/>
<path d="M374.524 689.991C397.331 689.753 420.166 689.987 442.975 689.991L442.999 760.061L374.467 760.113L374.524 689.991Z" fill="#F8F8F9"/>
<path d="M296.314 608.989L364.059 609L364.078 679.933L296.161 679.759C296.072 656.168 296.123 632.578 296.314 608.989Z" fill="#F8F8F9"/>
<path d="M452.996 609.003L520.836 609.04C520.927 632.651 520.888 656.261 520.721 679.872C498.242 680.625 475.524 680.012 453.02 680.022L452.996 609.003Z" fill="#F8F8F9"/>
<path d="M374.51 608.986L442.865 608.993L442.899 679.899C420.144 680.437 397.252 679.933 374.484 679.925L374.51 608.986Z" fill="#F8F8F9"/>
<path d="M215.638 689.994C239.1 689.765 262.587 689.95 286.05 690.028L286.025 760.12L215.821 760.079L215.638 689.994Z" fill="#F8F8F9"/>
<path d="M215.566 609.017L286.254 609.013C286.053 632.604 285.997 656.194 286.086 679.785C262.653 680.268 239.114 679.853 215.67 679.778L215.566 609.017Z" fill="#F8F8F9"/>
<path d="M296.304 770.046L364.027 770.031L364.036 843.802L296.111 843.672C296.08 819.161 295.754 794.546 296.304 770.046Z" fill="#F8F8F9"/>
<path d="M452.968 770.044L520.865 770.059C520.923 794.622 521.078 819.209 520.753 843.77C498.19 844.133 475.555 843.933 452.988 843.777L452.968 770.044Z" fill="#F8F8F9"/>
<path d="M374.493 769.989L442.985 769.984L442.892 843.832C420.118 844.193 397.286 843.743 374.504 843.839L374.493 769.989Z" fill="#F8F8F9"/>
<path d="M215.579 770.109L286.135 770.037L286.055 843.802L215.824 843.864C215.587 819.279 215.506 794.694 215.579 770.109Z" fill="#F8F8F9"/>
</g>
<defs>
<clipPath id="clip0_1_111">
<rect width="1024" height="1024" fill="white"/>
</clipPath>
</defs>
</svg>
